<svg width="469" height="21" viewBox="0 0 469 21" fill="none" xmlns="http://www.w3.org/2000/svg">
<g style="mix-blend-mode:color-dodge">
<path d="M468.996 13.0517H384.47C384.369 12.067 383.497 11.2966 382.428 11.2966C381.945 11.2966 381.511 11.4573 381.161 11.7168L368.695 0H291.284L262.184 18.9154H97.8543C97.7754 17.9101 96.8944 17.1191 95.803 17.1191C95.3427 17.1191 94.922 17.2674 94.5757 17.5064L70.6918 12.3992H36.5994L4.16418 12.5022C4.16418 10.8721 3.06822 10.8721 2.2312 10.8721C0.438318 10.8721 0 11.7413 0 12.8125C0 13.8837 0.219159 14.879 2.2312 14.879C4.24323 14.879 4.16418 13.1984 4.16418 13.1984H36.9545H70.3455L94.019 18.1079C93.8481 18.3921 93.7429 18.7135 93.7429 19.0596C93.7429 20.1307 94.6677 21 95.8074 21C96.7015 21 97.4555 20.4644 97.7447 19.7146H262.539L291.639 0.79924H368.344L380.613 12.3307C380.46 12.6026 380.363 12.9075 380.363 13.2371C380.363 14.3082 381.288 15.1775 382.428 15.1775C383.339 15.1775 384.102 14.6172 384.378 13.8509H469V13.0517H468.996Z" fill="white"/>
</g>
</svg>
