<svg width="728" height="103" viewBox="0 0 728 103" fill="none" xmlns="http://www.w3.org/2000/svg">
<path style="mix-blend-mode:color-dodge" d="M-532.988 62.6807H-316.256C-315.997 60.3483 -313.761 58.5234 -311.018 58.5234C-309.782 58.5234 -308.669 58.9039 -307.77 59.5187L-275.808 31.7645H-77.3159L-2.70026 96.5534L495.869 97.3739C496.071 94.9927 498.33 93.119 501.128 93.119C502.309 93.119 503.388 93.4703 504.275 94.0363L609.143 1.13552H696.559L718.842 1.37894C719.797 0.529912 721.135 0.00292969 722.607 0.00292969C725.529 0.00292969 727.9 2.06204 727.9 4.59936C727.9 7.13667 725.529 9.19578 722.607 9.19578C719.685 9.19578 717.313 7.13667 717.313 4.59936C717.313 4.0431 717.448 3.51613 717.65 3.02819L695.649 3.02874H610.03L505.703 95.4611C506.141 96.1345 506.411 96.8957 506.411 97.7155C506.411 100.253 504.039 102.312 501.117 102.312C498.824 102.312 496.891 101.043 496.15 99.2671L-3.61066 98.4467L-78.2264 33.6577H-274.909L-306.365 60.9728C-305.972 61.6169 -305.725 62.3391 -305.725 63.1198C-305.725 65.6571 -308.096 67.7163 -311.018 67.7163C-313.356 67.7163 -315.312 66.389 -316.02 64.5739H-533V62.6807H-532.988Z" fill="url(#paint0_radial_3079_3492)" fill-opacity="0.6"/>
<defs>
<radialGradient id="paint0_radial_3079_3492" cx="0" cy="0" r="1" gradientUnits="userSpaceOnUse" gradientTransform="translate(262.713 467.636) rotate(180) scale(1022.94 888.224)">
<stop stop-color="white"/>
<stop offset="0.16" stop-color="#3A5DAE"/>
<stop offset="0.29" stop-color="#74d1ea"/>
<stop offset="0.41" stop-color="#3A5DAE"/>
<stop offset="0.52" stop-color="#74d1ea"/>
<stop offset="0.63" stop-color="#3A5DAE"/>
<stop offset="0.74" stop-color="#0088ca"/>
<stop offset="0.84" stop-color="#3A5DAE"/>
<stop offset="0.94" stop-color="#3A5DAE"/>
<stop offset="1"/>
</radialGradient>
</defs>
</svg>
