<svg width="264" height="70" viewBox="0 0 264 70" fill="none" xmlns="http://www.w3.org/2000/svg">
<path style="mix-blend-mode:color-dodge" d="M263.758 30.9161H47.0262C46.7677 28.5838 44.5312 26.7589 41.7889 26.7589C40.5527 26.7589 39.4399 27.1394 38.5408 27.7542L6.57721 0H-191.914L-266.529 64.7892H-688.328C-688.53 62.4081 -690.789 60.5344 -693.587 60.5344C-694.768 60.5344 -695.846 60.8857 -696.734 61.4517L-757.537 8.65613H-844.954L-882.941 41.6509C-883.897 40.8019 -885.234 40.2749 -886.706 40.2749C-889.629 40.2749 -892 42.334 -892 44.8713C-892 47.4087 -889.629 49.4678 -886.706 49.4678C-883.784 49.4678 -881.413 47.4087 -881.413 44.8713C-881.413 44.3151 -881.548 43.7881 -881.75 43.3002L-844.043 10.5494H-758.425L-698.162 62.8765C-698.6 63.5499 -698.87 64.3111 -698.87 65.1308C-698.87 67.6681 -696.498 69.7272 -693.576 69.7272C-691.283 69.7272 -689.35 68.4586 -688.609 66.6825H-265.619L-191.004 1.8932H5.67816L37.136 29.2083C36.7426 29.8524 36.4953 30.5746 36.4953 31.3553C36.4953 33.8926 38.8668 35.9517 41.7889 35.9517C44.1266 35.9517 46.0822 34.6245 46.7902 32.8094H263.77V30.9161H263.758Z" fill="url(#paint0_radial_3079_3493)"/>
<defs>
<radialGradient id="paint0_radial_3079_3493" cx="0" cy="0" r="1" gradientUnits="userSpaceOnUse" gradientTransform="translate(-537.209 435.871) scale(1022.94 888.224)">
<stop stop-color="white"/>
<stop offset="0.16" stop-color="#3a5dae"/>
<stop offset="0.29" stop-color="#3a5dae"/>
<stop offset="0.41" stop-color="#0088ca"/>
<stop offset="0.52" stop-color="#3a5dae"/>
<stop offset="0.63" stop-color="#3a5dae"/>
<stop offset="0.74" stop-color="#3a5dae"/>
<stop offset="0.84" stop-color="#0088ca"/>
<stop offset="0.94" stop-color="#0088ca"/>
<stop offset="1"/>
</radialGradient>
</defs>
</svg>
