<?xml version="1.0" encoding="UTF-8"?><svg id="Capa_2" xmlns="http://www.w3.org/2000/svg" xmlns:xlink="http://www.w3.org/1999/xlink" viewBox="0 0 404.85 125.21"><defs><style>.cls-1{fill:url(#Degradado_sin_nombre_107-7);}.cls-1,.cls-2,.cls-3,.cls-4,.cls-5,.cls-6,.cls-7,.cls-8,.cls-9{stroke-width:0px;}.cls-2{fill:url(#Degradado_sin_nombre_107-6);}.cls-3{fill:url(#Degradado_sin_nombre_107-8);}.cls-4{fill:url(#Degradado_sin_nombre_107-4);}.cls-5{fill:#3566af;}.cls-6{fill:url(#Degradado_sin_nombre_107);}.cls-7{fill:url(#Degradado_sin_nombre_107-5);}.cls-8{fill:url(#Degradado_sin_nombre_107-2);}.cls-9{fill:url(#Degradado_sin_nombre_107-3);}</style><linearGradient id="Degradado_sin_nombre_107" x1="0" y1="35.11" x2="13.9" y2="35.11" gradientUnits="userSpaceOnUse"><stop offset="0" stop-color="#0087c9"/><stop offset="1" stop-color="#1bb2e5"/></linearGradient><linearGradient id="Degradado_sin_nombre_107-2" x1="20.2" y1="35.51" x2="69.61" y2="35.51" xlink:href="#Degradado_sin_nombre_107"/><linearGradient id="Degradado_sin_nombre_107-3" x1="74.41" y1="42.81" x2="119.02" y2="42.81" xlink:href="#Degradado_sin_nombre_107"/><linearGradient id="Degradado_sin_nombre_107-4" x1="155.23" y1="70.12" x2="155.23" y2="0" xlink:href="#Degradado_sin_nombre_107"/><linearGradient id="Degradado_sin_nombre_107-5" x1="198.98" y1="69.12" x2="198.98" y2="1.1" xlink:href="#Degradado_sin_nombre_107"/><linearGradient id="Degradado_sin_nombre_107-6" x1="234.24" y1="70.23" x2="234.24" y2="15.4" xlink:href="#Degradado_sin_nombre_107"/><linearGradient id="Degradado_sin_nombre_107-7" x1="284.85" y1="70.12" x2="284.85" y2="15.4" xlink:href="#Degradado_sin_nombre_107"/><linearGradient id="Degradado_sin_nombre_107-8" x1="335.96" y1="70.12" x2="335.96" y2="15.4" xlink:href="#Degradado_sin_nombre_107"/></defs><g id="Capa_1-2"><path class="cls-6" d="M0,8.4C0,3.6,2.3,1.1,7,1.1h6.9v68.02H0V8.4Z"/><path class="cls-8" d="M69.61,7.8v38.41c0,15.9-8.3,23.81-24.81,23.71-16.4-.3-24.61-9.2-24.61-26.81s7-27.21,21.1-27.71c6.6,0,11.7,2.7,15.1,8.2V1.1h6.6c3.6,0,6.6,3.1,6.6,6.7ZM33.91,42.51c-.1,10.7,3.5,16.1,11.1,16.1s11.4-5.4,11.4-16.1c-.3-10.2-4-15.2-11.2-15.2s-10.9,5-11.3,15.2Z"/><path class="cls-9" d="M89.32,30.01h-13.3c1.6-9.8,8.5-14.6,20.7-14.6,14.6,0,22.01,4.8,22.31,14.6v18c0,14.6-8.8,21.1-23.11,22.11-12.7,1-21.5-4.9-21.5-16.6.3-12.7,9.5-16.1,22.9-17.4,5.7-.7,8.6-2.4,8.6-5.3-.3-3-3.1-4.5-8.6-4.5-4.7,0-7.3,1.2-8,3.7ZM106.12,47.41v-4.9c-3.1,1.3-6.7,2.4-10.6,3.2-5.3,1-8,3.5-8,7.4.3,4.2,2.5,6.2,6.7,6.2,7.4,0,11.9-4.4,11.9-11.9Z"/><path class="cls-4" d="M156.13,70.12c-20.91,0-31.31-13.8-31.31-35.01S135.82,0,157.33,0c8.3,0,15,2,20.1,6.2,4.8,4.3,7.5,10.2,8.2,17.6h-8.4c-3,0-5.2-1.4-6.5-4.1-2.3-4.9-6.8-7.4-13.4-7.4-12.9,0-18.6,9.1-18.6,22.81s5.5,22.71,18.2,22.71c8.7,0,13.7-4.8,15.2-12.3h13.5c-1.3,15.7-12.3,24.61-29.51,24.61Z"/><path class="cls-7" d="M205.64,7.6v61.51h-13.3V1.1h6.9c3.5,0,6.4,3,6.4,6.5Z"/><path class="cls-2" d="M226.84,30.01h-13.3c1.6-9.8,8.5-14.6,20.7-14.6,14.6,0,22.01,4.8,22.31,14.6v18c0,14.6-8.8,21.1-23.11,22.11-12.7,1-21.5-4.9-21.5-16.6.3-12.7,9.5-16.1,22.9-17.4,5.7-.7,8.6-2.4,8.6-5.3-.3-3-3.1-4.5-8.6-4.5-4.7,0-7.3,1.2-8,3.7ZM243.64,47.41v-4.9c-3.1,1.3-6.7,2.4-10.6,3.2-5.3,1-8,3.5-8,7.4.3,4.2,2.5,6.2,6.7,6.2,7.4,0,11.9-4.4,11.9-11.9Z"/><path class="cls-1" d="M286.05,59.51c5.6,0,8.4-1.6,8.4-5,0-2.7-4.6-4.9-13.7-6.5-11.7-2.1-17.7-7.3-17.8-15.6,0-11.4,9-16.8,21.11-17,6.8,0,12.2,1.5,16.2,4.5,3.9,3.1,6,7.4,6.3,12.9h-8.4c-3.1-.1-5.1-1.2-5.9-3.3-.9-2.3-3.6-3.6-8-3.6-5.2,0-7.8,1.4-7.8,4.1s3.4,4.8,10.3,6.1c9,1.8,14.9,4.1,17.8,6.8,2.5,2.6,3.7,5.8,3.7,9.4,0,13-10.2,17.8-24.21,17.8-7.4,0-13-1.6-16.6-4.7-4-3-6-7.6-6-13.7h13.6c.3,5.8,4.5,7.8,11,7.8Z"/><path class="cls-3" d="M337.16,59.51c5.6,0,8.4-1.6,8.4-5,0-2.7-4.6-4.9-13.7-6.5-11.7-2.1-17.7-7.3-17.8-15.6,0-11.4,9-16.8,21.11-17,6.8,0,12.2,1.5,16.2,4.5,3.9,3.1,6,7.4,6.3,12.9h-8.4c-3.1-.1-5.1-1.2-5.9-3.3-.9-2.3-3.6-3.6-8-3.6-5.2,0-7.8,1.4-7.8,4.1s3.4,4.8,10.3,6.1c9,1.8,14.9,4.1,17.8,6.8,2.5,2.6,3.7,5.8,3.7,9.4,0,13-10.2,17.8-24.21,17.8-7.4,0-13-1.6-16.6-4.7-4-3-6-7.6-6-13.7h13.6c.3,5.8,4.5,7.8,11,7.8Z"/><path class="cls-5" d="M403.82,63.95c.34-.21.8-.08.92.3.43,1.32-.53,2.5-1.2,3.36-3.46,4.42-7.19,8.63-10.5,13.15-3.86,5.27-6.54,8.88-10.25,14.27-1.21,1.76-3.45,4.68-5.15,5.73-1.27.79-3.45,1.87-4.78,1.1-2.1-1.2-.79-3.09.31-4.58,4.22-5.71,9.93-10.43,11.88-17.68l.65-2.37c.18-.67-.64-1.15-1.13-.66-1.91,1.89-3.81,3.8-5.78,5.64-3.76,3.51-5.51,2.99-6.73-1.93-.06-.22-.12-.44-.21-.69-.21-.63-1.02-.81-1.48-.32-.7.76-1.31,1.42-2.06,1.81-1.58.82-3.35,1.15-4.65.66-1.35-.51-2.75-1.83-3.2-3.52-.31-1.17-.38-2.41-.4-3.7-.02-1.07-1.35-1.54-2.04-.73-1.82,2.16-3.5,4.17-5.39,5.96-.95.9-2.28,1.38-3.59,1.89-.76.3-1.62-.04-1.98-.78-.67-1.38-1.37-2.76-1.62-4.21-.13-.76-.07-1.56-.01-2.41s-.61-1.55-1.45-1.51c-.79.04-.85.69-1.25,1.04-3.7,3.32-4.78,4.48-8.54,13.62-.02.03-.04.07-.07.1-1.12,1.6-3.56,1.46-4.61-.2-.21-.34-.38-.68-.47-1.05-.25-1.02,1.53-3.56,1.98-5.21.14-.52-.52-.9-.92-.52-2.58,2.42-4.46,4.24-6.39,6-6.97,6.35-8.83,6.52-14.99-.02-.35-.37-.93-.38-1.29-.02-.92.92-1.84,1.82-2.67,2.79-4.28,5.02-6.92,4.69-9.58-1.24-.14-.31-.3-.61-.52-1.03-.29-.53-1.02-.62-1.41-.16-1.27,1.45-2.4,2.73-3.51,4.03-3.85,4.46-5.38,4.35-8.38-.58-.14-.22-.32-.42-.57-.68-.38-.39-1.01-.38-1.37.03-.99,1.14-1.88,2.25-2.98,3.1-1.41,1.09-3.58,2.85-4.58,2.41-1.62-.71-2.6-2.95-3.73-4.62h0c-.63-.96-2-1.05-2.76-.2-1.63,1.81-3.12,3.47-4.71,5.02-1.04,1.01-2.77,2.47-3.67,2.17-1.25-.42-2.08-2.25-2.94-3.57-.35-.53-.55-1.16-.84-2.02-.19-.57-.91-.77-1.37-.39-1.32,1.1-2.46,2.06-3.62,2.99-1.39,1.12-2.67,2.62-4.27,3.18-2.08.73-6.56,1.59-8,.66-1.84-1.19-2.28-2.84-2.53-5.59-.15-1.69.74-4.24,1.25-6.39.16-.66-.48-1.24-1.13-1.02-3.38,1.16-6.3,2.33-7.26,6.22-.91,3.71-1.76,7.43-2.8,11.1-.22.78-.72,1.48-1.21,2.19-.3.43-.92.5-1.3.13-.91-.89-1.9-1.75-2.2-2.81-.39-1.34.31-3.02.63-4.53.31-1.47.69-2.93,1.14-4.75.16-.66-.43-1.26-1.09-1.11-4.14.94-7.42,2.34-9.92,5.66-5.16,6.86-10.46,13.62-15.81,20.34-1.7,2.14-3.62,4.14-5.67,5.95-3.12,2.77-7.44,1.46-8.28-2.65-.22-1.06,1.19-2.72,2.22-3.72,6.14-5.95,12.39-11.78,18.58-17.68.38-.37,1.6-1.7,2.06-2.62,0,0,0-.01,0-.01-3.69.02-8.61,2.09-12,.51-1.65-.77-1.29-3.25.5-3.62h0c5.01-1.05,10.05-2.01,15.02-3.2,4.63-1.11,6.69-5.24,9.16-8.65,3.91-5.4,7.41-11.1,11.11-16.65.45-.68,1.16-1.17,1.63-1.84q2.12-3.06,3.18-4.46c1.12-1.48,2.3-3.33,4.65-2.06.8.43.97,3.14.53,4.52-1.82,5.8-4,11.49-6.01,17.24-.28.81-.47,1.65-.76,2.83-.15.61.39,1.17,1.01,1.05,3.83-.76,6.84-2,9.35-4.5,1.09-1.1,2.06-2.36,3.29-3.27,1.74-1.29,3.75-2.57,5.79-.6,1.87,1.8,2.6,4.08,1.31,6.52-1.17,2.21-2.75,3.84-5.42,3.97-.72.04-1.15-.8-.72-1.37l2.26-2.99c.56-.74-.45-1.72-1.23-1.12-4.31,3.32-8.37,9.32-8.55,12.96-.15,3.1,1.3,3.16,4.28,2.26,7.04-2.13,11.35-9.49,16.22-15.02,2.53-2.87,4.4-5.33,7.47-6.58,3.49-1.42,5.22-1.8,7.82.33,2.21,1.81,2.64,3.62,1.26,6.22-2.57,4.84-3.14,7.23-2.41,10.43.14.6.85.88,1.36.54.96-.65,1.82-1.28,2.52-2.02,4.23-4.49,6.47-7.39,9.05-11.96,1.46-2.58,3.42-5.09,5.77-6.69,1.78-1.2,4.81-1.61,6.91-1.03,2.55.7,3.43-.08,4.46-1.98,3.61-6.59,7.2-13.19,11.03-19.66.99-1.66,1.8-5.03,4.87-3.04,2.85,1.85.96,4.17-.25,6.23-4.7,8.02-9.51,15.99-14.02,24.11-2.08,3.75-3.49,7.84-3.56,12.17-.01.7.81,1.1,1.36.65,1.05-.87,2.19-1.66,3.05-2.69,4.18-5.05,8.23-10.2,12.39-15.27.82-1,1.74-2.23,2.87-2.61,1.62-.54,3.88-1.1,5.14-.38,2.15,1.24,2.05,3.84.57,5.68-3.13,3.89-6.76,7.06-10.08,10.79-.47.53-1.03,1.32-1.38,1.9-.24.41-.34.9-.43,1.41-.08.44.19.87.63.98.52.14,1.05.26,1.49.13,1.12-.34,2.29-.87,3.15-1.64,4.71-4.2,9.51-8.32,13.89-12.85,1.54-1.59,1.91-4.29,2.92-6.43.31-.66.48-.93,1.22-1.33.47-.26.76-.28,1.31-.07.98.38,1.48,1.01,1.58,1.86.17,1.38-.04,2.82,0,4.42.02.77.99,1.12,1.5.54.92-1.05,1.83-2.1,2.92-2.92,1.09-.82,1.83-.99,3.6-1.16.41-.04.81.13,1.08.43.97,1.09,1.32,1.85,1.64,3.12.21.84.19,1.73.47,2.75.18.64,1.01.83,1.46.33,2.28-2.55,4.51-5.14,6.95-7.53.68-.66,1.56-1.12,2.47-1.55,1.01-.48,2.21-.08,2.74.91.59,1.12,1.16,2.23,1.24,3.39.13,1.7-.17,3.44-.52,5.56-.18,1.1,1.05,1.9,1.97,1.27,4.79-3.3,8.05-7.03,10.4-11.68.32-.64.37-1.44.79-1.99.34-.45.7-.88,1.08-1.3.78-.87,2.17-.71,2.73.31.53.95.96,1.89.78,2.68-.71,3.09-2.31,5.98-3.56,8.95-.07.17-.14.34-.21.51-.44,1.07.95,1.95,1.74,1.11,2.21-2.34,4.41-4.69,6.6-7.04.65-.7,1.14-1.57,1.86-2.17.17-.14.35-.28.53-.41,1.5-1.08,3.55-.54,4.34,1.13.17.36.28.72.29,1.09.04,1.54-.32,3.08-.48,4.8-.07.79.89,1.24,1.45.68,0,0,6.03-7.34,8.77-9.06ZM295.74,71.76c-5.2,1.85-11.02,10.81-10.51,15.86.06.61.71.96,1.25.67,5.01-2.71,9.86-9.96,10.36-15.66.05-.6-.53-1.08-1.1-.88ZM259.92,90.04c5.35-4.69,6.84-7.62,8.87-11.98.4-.86-.38-1.78-1.3-1.57-4.69,1.1-8.59,7.05-9.12,12.76-.08.84.91,1.35,1.55.79ZM223.12,78.36l-4.5,6.85c-.39.6.09,1.39.8,1.32,2.86-.27,4.17-2.49,5.24-7.52.2-.93-1.02-1.45-1.54-.65ZM312.92,78.92h0c.35.3.08.94,1.61-.21l7.19-6.48c.31-.35,1.29-1.41.96-2.33l-.83-.46c-.35-.3-1.9-.06-2.2.29-1.79,2.08-6.82,6.96-6.81,8.39,0,.46-.26.49.1.8Z"/></g></svg>