<?xml version="1.0" encoding="UTF-8"?><svg id="Capa_2" xmlns="http://www.w3.org/2000/svg" xmlns:xlink="http://www.w3.org/1999/xlink" viewBox="0 0 407.99 125.68"><defs><style>.cls-1{fill:url(#Degradado_sin_nombre_107-7);}.cls-1,.cls-2,.cls-3,.cls-4,.cls-5,.cls-6,.cls-7,.cls-8,.cls-9{stroke-width:0px;}.cls-2{fill:url(#Degradado_sin_nombre_107-6);}.cls-3{fill:url(#Degradado_sin_nombre_107-8);}.cls-4{fill:url(#Degradado_sin_nombre_107-4);}.cls-5{fill:url(#Degradado_sin_nombre_107);}.cls-6{fill:url(#Degradado_sin_nombre_107-5);}.cls-7{fill:url(#Degradado_sin_nombre_107-2);}.cls-8{fill:#fff;}.cls-9{fill:url(#Degradado_sin_nombre_107-3);}</style><linearGradient id="Degradado_sin_nombre_107" x1="0" y1="35.15" x2="13.92" y2="35.15" gradientUnits="userSpaceOnUse"><stop offset="0" stop-color="#0087c9"/><stop offset="1" stop-color="#1bb2e5"/></linearGradient><linearGradient id="Degradado_sin_nombre_107-2" x1="20.23" y1="35.55" x2="69.69" y2="35.55" xlink:href="#Degradado_sin_nombre_107"/><linearGradient id="Degradado_sin_nombre_107-3" x1="74.5" y1="42.86" x2="119.16" y2="42.86" xlink:href="#Degradado_sin_nombre_107"/><linearGradient id="Degradado_sin_nombre_107-4" x1="155.4" y1="70.2" x2="155.4" y2="0" xlink:href="#Degradado_sin_nombre_107"/><linearGradient id="Degradado_sin_nombre_107-5" x1="199.21" y1="69.19" x2="199.21" y2="1.1" xlink:href="#Degradado_sin_nombre_107"/><linearGradient id="Degradado_sin_nombre_107-6" x1="234.51" y1="70.3" x2="234.51" y2="15.42" xlink:href="#Degradado_sin_nombre_107"/><linearGradient id="Degradado_sin_nombre_107-7" x1="285.17" y1="70.2" x2="285.17" y2="15.42" xlink:href="#Degradado_sin_nombre_107"/><linearGradient id="Degradado_sin_nombre_107-8" x1="336.34" y1="70.2" x2="336.34" y2="15.42" xlink:href="#Degradado_sin_nombre_107"/></defs><g id="Capa_1-2"><path class="cls-5" d="M0,8.41C0,3.6,2.3,1.1,7.01,1.1h6.91v68.09H0V8.41Z"/><path class="cls-7" d="M69.69,7.81v38.45c0,15.92-8.31,23.83-24.83,23.73-16.42-.3-24.63-9.21-24.63-26.84s7.01-27.24,21.13-27.74c6.61,0,11.72,2.7,15.12,8.21V1.1h6.61c3.6,0,6.61,3.1,6.61,6.71ZM33.94,42.56c-.1,10.71,3.51,16.12,11.12,16.12s11.42-5.41,11.42-16.12c-.3-10.21-4.01-15.22-11.21-15.22s-10.92,5.01-11.32,15.22Z"/><path class="cls-9" d="M89.42,30.04h-13.32c1.6-9.81,8.51-14.62,20.73-14.62,14.62,0,22.03,4.81,22.33,14.62v18.02c0,14.62-8.81,21.13-23.13,22.13-12.72,1-21.53-4.91-21.53-16.62.3-12.72,9.51-16.12,22.93-17.42,5.71-.7,8.61-2.4,8.61-5.31-.3-3-3.1-4.51-8.61-4.51-4.71,0-7.31,1.2-8.01,3.7ZM106.24,47.46v-4.91c-3.1,1.3-6.71,2.4-10.61,3.2-5.31,1-8.01,3.5-8.01,7.41.3,4.21,2.5,6.21,6.71,6.21,7.41,0,11.92-4.41,11.92-11.92Z"/><path class="cls-4" d="M156.3,70.2c-20.93,0-31.34-13.82-31.34-35.05S135.98,0,157.51,0c8.31,0,15.02,2,20.13,6.21,4.81,4.31,7.51,10.21,8.21,17.62h-8.41c-3,0-5.21-1.4-6.51-4.11-2.3-4.91-6.81-7.41-13.42-7.41-12.92,0-18.63,9.11-18.63,22.83s5.51,22.73,18.23,22.73c8.71,0,13.72-4.81,15.22-12.32h13.52c-1.3,15.72-12.32,24.63-29.54,24.63Z"/><path class="cls-6" d="M205.87,7.61v61.58h-13.32V1.1h6.91c3.51,0,6.41,3,6.41,6.51Z"/><path class="cls-2" d="M227.1,30.04h-13.32c1.6-9.81,8.51-14.62,20.73-14.62,14.62,0,22.03,4.81,22.33,14.62v18.02c0,14.62-8.81,21.13-23.13,22.13-12.72,1-21.53-4.91-21.53-16.62.3-12.72,9.51-16.12,22.93-17.42,5.71-.7,8.61-2.4,8.61-5.31-.3-3-3.1-4.51-8.61-4.51-4.71,0-7.31,1.2-8.01,3.7ZM243.92,47.46v-4.91c-3.1,1.3-6.71,2.4-10.61,3.2-5.31,1-8.01,3.5-8.01,7.41.3,4.21,2.5,6.21,6.71,6.21,7.41,0,11.92-4.41,11.92-11.92Z"/><path class="cls-1" d="M286.37,59.58c5.61,0,8.41-1.6,8.41-5.01,0-2.7-4.61-4.91-13.72-6.51-11.72-2.1-17.72-7.31-17.82-15.62,0-11.42,9.01-16.82,21.13-17.02,6.81,0,12.22,1.5,16.22,4.51,3.9,3.1,6.01,7.41,6.31,12.92h-8.41c-3.1-.1-5.11-1.2-5.91-3.3-.9-2.3-3.61-3.6-8.01-3.6-5.21,0-7.81,1.4-7.81,4.11s3.41,4.81,10.31,6.11c9.01,1.8,14.92,4.11,17.82,6.81,2.5,2.6,3.7,5.81,3.7,9.41,0,13.02-10.21,17.82-24.23,17.82-7.41,0-13.02-1.6-16.62-4.71-4.01-3-6.01-7.61-6.01-13.72h13.62c.3,5.81,4.51,7.81,11.01,7.81Z"/><path class="cls-3" d="M337.54,59.58c5.61,0,8.41-1.6,8.41-5.01,0-2.7-4.61-4.91-13.72-6.51-11.72-2.1-17.72-7.31-17.82-15.62,0-11.42,9.01-16.82,21.13-17.02,6.81,0,12.22,1.5,16.22,4.51,3.9,3.1,6.01,7.41,6.31,12.92h-8.41c-3.1-.1-5.11-1.2-5.91-3.3-.9-2.3-3.61-3.6-8.01-3.6-5.21,0-7.81,1.4-7.81,4.11s3.41,4.81,10.31,6.11c9.01,1.8,14.92,4.11,17.82,6.81,2.5,2.6,3.7,5.81,3.7,9.41,0,13.02-10.21,17.82-24.23,17.82-7.41,0-13.02-1.6-16.62-4.71-4.01-3-6.01-7.61-6.01-13.72h13.62c.3,5.81,4.51,7.81,11.01,7.81Z"/><path class="cls-8" d="M406.95,63.5c.34-.21.81-.08.94.3.44,1.34-.54,2.54-1.22,3.41-3.51,4.48-7.3,8.76-10.65,13.35-3.92,5.35-6.64,9.02-10.41,14.48-1.23,1.78-3.5,4.75-5.23,5.82-1.29.8-3.5,1.9-4.86,1.12-2.13-1.22-.8-3.14.31-4.65,4.28-5.8,10.08-10.58,12.05-17.94l.66-2.41c.18-.68-.65-1.17-1.15-.67-1.94,1.92-3.87,3.86-5.86,5.72-3.82,3.57-5.59,3.04-6.83-1.96-.06-.22-.12-.45-.21-.7-.21-.64-1.04-.82-1.5-.33-.72.77-1.33,1.44-2.09,1.83-1.61.83-3.4,1.17-4.72.67-1.37-.52-2.79-1.86-3.25-3.58-.32-1.19-.39-2.44-.41-3.75-.02-1.08-1.37-1.56-2.07-.74-1.85,2.19-3.55,4.24-5.48,6.05-.96.91-2.32,1.4-3.65,1.92-.78.3-1.65-.05-2.01-.8-.68-1.4-1.39-2.8-1.65-4.28-.14-.77-.07-1.58-.02-2.45s-.62-1.58-1.47-1.53c-.8.04-.87.7-1.27,1.06-3.76,3.37-4.85,4.55-8.67,13.83-.02.03-.04.07-.07.1-1.14,1.63-3.61,1.48-4.68-.2-.22-.34-.38-.69-.48-1.07-.26-1.04,1.56-3.61,2.01-5.29.15-.53-.53-.91-.93-.53-2.62,2.46-4.53,4.3-6.49,6.09-7.07,6.45-8.96,6.62-15.22-.02-.35-.37-.94-.38-1.31-.02-.93.93-1.87,1.84-2.71,2.83-4.34,5.1-7.02,4.76-9.72-1.26-.14-.31-.3-.62-.53-1.04-.29-.54-1.03-.63-1.43-.16-1.29,1.47-2.43,2.77-3.56,4.09-3.91,4.53-5.46,4.42-8.51-.59-.14-.23-.32-.42-.57-.69-.38-.4-1.03-.39-1.39.03-1.01,1.16-1.91,2.29-3.03,3.15-1.43,1.1-3.64,2.9-4.65,2.45-1.64-.73-2.64-2.99-3.78-4.69h0c-.64-.97-2.03-1.07-2.81-.2-1.65,1.84-3.17,3.52-4.78,5.09-1.05,1.02-2.81,2.51-3.72,2.2-1.27-.43-2.11-2.28-2.99-3.63-.35-.54-.55-1.18-.85-2.05-.2-.58-.92-.79-1.4-.39-1.34,1.12-2.5,2.09-3.67,3.03-1.42,1.14-2.71,2.66-4.34,3.23-2.11.74-6.66,1.61-8.12.67-1.87-1.21-2.32-2.89-2.57-5.67-.16-1.72.76-4.3,1.27-6.48.16-.67-.49-1.26-1.14-1.03-3.43,1.18-6.4,2.37-7.37,6.32-.93,3.76-1.79,7.54-2.84,11.27-.22.79-.73,1.51-1.23,2.22-.3.44-.93.5-1.31.13-.92-.9-1.93-1.78-2.24-2.85-.39-1.36.31-3.07.64-4.6.32-1.5.7-2.98,1.16-4.82.17-.67-.43-1.28-1.1-1.13-4.2.96-7.54,2.37-10.07,5.74-5.24,6.97-10.62,13.83-16.05,20.65-1.73,2.17-3.68,4.2-5.75,6.04-3.17,2.81-7.55,1.48-8.4-2.69-.22-1.07,1.2-2.76,2.25-3.77,6.23-6.04,12.58-11.96,18.86-17.95.39-.37,1.62-1.73,2.09-2.66,0,0,0-.01,0-.01-3.74.02-8.74,2.12-12.19.52-1.68-.78-1.31-3.3.51-3.68h0c5.09-1.06,10.2-2.04,15.25-3.25,4.7-1.13,6.79-5.32,9.29-8.78,3.97-5.48,7.52-11.27,11.28-16.91.46-.69,1.18-1.18,1.65-1.87q2.15-3.1,3.23-4.53c1.13-1.51,2.34-3.38,4.72-2.09.81.44.98,3.18.54,4.59-1.85,5.89-4.06,11.67-6.1,17.5-.29.82-.48,1.68-.77,2.87-.15.62.4,1.19,1.03,1.06,3.88-.78,6.95-2.03,9.49-4.57,1.11-1.11,2.09-2.4,3.34-3.32,1.77-1.31,3.81-2.61,5.88-.61,1.9,1.83,2.64,4.14,1.33,6.62-1.19,2.24-2.8,3.9-5.5,4.03-.73.04-1.17-.81-.73-1.39l2.3-3.04c.56-.75-.45-1.75-1.24-1.14-4.38,3.37-8.5,9.46-8.68,13.16-.15,3.15,1.32,3.21,4.34,2.29,7.14-2.17,11.52-9.64,16.47-15.24,2.57-2.91,4.47-5.41,7.59-6.68,3.54-1.44,5.3-1.82,7.94.34,2.24,1.83,2.68,3.67,1.28,6.31-2.61,4.91-3.18,7.34-2.45,10.59.14.61.86.89,1.38.54.98-.65,1.85-1.3,2.56-2.05,4.29-4.55,6.57-7.51,9.19-12.14,1.48-2.62,3.47-5.17,5.86-6.79,1.81-1.22,4.88-1.63,7.02-1.04,2.58.71,3.48-.08,4.53-2.01,3.66-6.69,7.31-13.39,11.2-19.95,1-1.69,1.83-5.11,4.95-3.08,2.89,1.88.97,4.23-.25,6.32-4.77,8.15-9.65,16.23-14.23,24.48-2.11,3.81-3.54,7.96-3.61,12.36-.01.71.83,1.11,1.38.66,1.07-.88,2.23-1.69,3.09-2.73,4.24-5.13,8.36-10.36,12.58-15.5.83-1.02,1.77-2.27,2.91-2.65,1.65-.55,3.94-1.12,5.22-.38,2.18,1.26,2.08,3.9.58,5.77-3.17,3.95-6.86,7.16-10.23,10.96-.48.54-1.05,1.34-1.4,1.93-.25.41-.34.92-.43,1.43-.08.45.2.88.64.99.53.14,1.06.27,1.51.13,1.14-.34,2.32-.88,3.2-1.66,4.78-4.26,9.65-8.45,14.1-13.05,1.56-1.62,1.93-4.35,2.97-6.52.32-.67.49-.94,1.24-1.35.47-.26.78-.29,1.33-.07,1,.39,1.5,1.03,1.61,1.89.18,1.4-.04,2.86,0,4.49.02.78,1.01,1.14,1.52.54.93-1.07,1.86-2.13,2.97-2.96,1.11-.83,1.86-1.01,3.66-1.18.41-.04.82.13,1.1.44.99,1.11,1.34,1.87,1.66,3.17.21.85.19,1.75.48,2.79.18.65,1.03.84,1.48.34,2.31-2.58,4.58-5.22,7.05-7.64.69-.67,1.58-1.14,2.5-1.57,1.03-.48,2.25-.08,2.78.92.6,1.13,1.17,2.27,1.26,3.44.13,1.73-.18,3.49-.53,5.64-.18,1.12,1.07,1.93,2,1.29,4.86-3.35,8.18-7.14,10.56-11.86.33-.64.38-1.46.8-2.02.34-.46.71-.89,1.09-1.32.79-.88,2.21-.72,2.78.32.53.97.97,1.91.79,2.72-.72,3.14-2.35,6.07-3.61,9.08-.07.17-.15.35-.22.52-.44,1.09.96,1.98,1.77,1.12,2.24-2.38,4.48-4.76,6.7-7.15.66-.71,1.15-1.6,1.89-2.2.17-.14.35-.28.54-.41,1.52-1.1,3.61-.55,4.41,1.15.17.37.28.73.3,1.1.04,1.56-.33,3.13-.49,4.87-.07.8.91,1.26,1.48.69,0,0,6.12-7.45,8.9-9.2ZM297.22,71.43c-5.27,1.88-11.19,10.97-10.67,16.1.06.62.72.98,1.26.68,5.08-2.75,10.01-10.11,10.52-15.9.05-.61-.54-1.1-1.12-.89ZM260.86,89.98c5.43-4.76,6.95-7.73,9.01-12.16.41-.87-.38-1.81-1.32-1.59-4.76,1.12-8.72,7.16-9.25,12.95-.08.85.93,1.37,1.57.8ZM223.51,78.13l-4.57,6.95c-.4.61.09,1.41.81,1.34,2.91-.27,4.23-2.53,5.32-7.63.2-.94-1.04-1.47-1.57-.66ZM314.66,78.69h0c.35.3.08.96,1.63-.22l7.29-6.58c.31-.36,1.31-1.43.97-2.36l-.84-.46c-.36-.31-1.93-.06-2.23.3-1.82,2.12-6.92,7.07-6.91,8.52,0,.47-.26.5.1.81Z"/></g></svg>