<svg width="16" height="21" viewBox="0 0 16 21" fill="none" xmlns="http://www.w3.org/2000/svg">
<path d="M10.94 17.5L8.00001 15.77L5.06001 17.5L5.84001 14.16L3.25001 11.92L6.66001 11.63L8.00001 8.5L9.34001 11.63L12.75 11.92L10.16 14.16M16 0H1.18341e-05V2L4.86001 5.64C3.16442 6.36359 1.77077 7.65057 0.914748 9.28331C0.0587265 10.916 -0.207126 12.7943 0.162151 14.6005C0.531428 16.4067 1.51317 18.0299 2.94135 19.1956C4.36952 20.3613 6.15648 20.998 8.00001 20.998C9.84354 20.998 11.6305 20.3613 13.0587 19.1956C14.4869 18.0299 15.4686 16.4067 15.8379 14.6005C16.2071 12.7943 15.9413 10.916 15.0853 9.28331C14.2293 7.65057 12.8356 6.36359 11.14 5.64L16 2M14 13C14.0005 14.1363 13.6784 15.2493 13.0711 16.2097C12.4638 17.1701 11.5962 17.9382 10.5694 18.4248C9.54262 18.9114 8.39874 19.0964 7.27089 18.9584C6.14304 18.8203 5.07757 18.3648 4.19847 17.6448C3.31937 16.9249 2.66277 15.9701 2.30507 14.8916C1.94737 13.8131 1.90327 12.6552 2.1779 11.5526C2.45253 10.4501 3.03461 9.44812 3.85641 8.66341C4.6782 7.87869 5.70593 7.34347 6.82001 7.12C7.59854 6.95995 8.40149 6.95995 9.18001 7.12C10.5389 7.39258 11.7616 8.12722 12.6402 9.1991C13.5189 10.271 13.9994 11.614 14 13ZM8.63001 5H7.37001L3.37001 2H12.71L8.63001 5Z" fill="#C2C2C2"/>
</svg>
