<svg width="72" height="64" viewBox="0 0 72 64" fill="none" xmlns="http://www.w3.org/2000/svg">
<g clip-path="url(#clip0_3539_1788)">
<path d="M31.1024 50.9893H29.9685C21.1969 50.9893 12.4409 50.9893 3.66929 50.9893C3.1811 50.9893 2.67717 50.9893 2.20472 50.8775C0.913386 50.5582 0.0472441 49.3929 0.0314961 47.9561C0.015748 45.5934 0.0314961 43.2307 0.0314961 40.8521C0.0314961 28.448 0.0629921 16.0439 0 3.62385C0 1.18134 1.54331 0 3.59055 0C25.1969 0.0319282 46.8032 0.0319282 68.4094 0C70.4252 0 72 1.16538 71.9843 3.63981C71.9213 15.1499 71.9528 26.676 71.9528 38.1861C71.9528 41.2352 71.874 44.2844 71.9843 47.3335C72.063 49.6323 70.6929 51.0372 68.378 51.0212C59.5906 50.9573 50.7874 50.9893 42 50.9893C41.6693 50.9893 41.3386 50.9893 40.8819 50.9893C41.3071 52.6655 41.7008 54.2459 42.1417 55.7945C42.1732 55.9222 42.5669 56.018 42.8032 56.018C43.9213 56.0818 45.0394 56.018 46.1417 56.1457C49.2598 56.5288 51.748 59.3864 51.8268 62.5792C51.8583 63.5051 51.4173 63.984 50.4567 63.984C48.2835 63.984 46.0945 63.984 43.9213 63.984C36.5827 63.984 29.2441 63.984 21.9055 63.984C20.3937 63.984 20 63.5211 20.2205 62.0045C20.7402 58.4605 23.4173 56.0818 26.9449 56.018C27.7165 56.018 28.5039 56.0339 29.2756 56.002C29.4803 56.002 29.8268 55.8424 29.874 55.6827C30.2992 54.1661 30.6772 52.6495 31.1024 50.9573V50.9893ZM23.5118 29.0706C24.1417 28.0968 24.7402 27.2188 25.2913 26.2928C25.7008 25.5904 26.252 25.351 27.0394 25.4148C29.7953 25.6383 32.1417 26.7079 34.0315 28.7673C35.8268 30.7468 36.7244 33.1095 36.7559 35.7915C36.7874 37.5156 36.7559 39.2397 36.7559 41.0117H69.748C69.748 40.7563 69.7795 40.5488 69.7795 40.3412C69.7795 28.0649 69.7795 15.7885 69.7795 3.5121C69.7795 2.4904 69.5906 2.31479 68.5039 2.31479C46.8504 2.31479 25.1969 2.31479 3.52756 2.31479C2.37795 2.31479 2.23622 2.47443 2.23622 3.63981C2.23622 15.8204 2.23622 27.985 2.23622 40.1656V41.0117H10.2835C10.2835 40.6605 10.2835 40.3732 10.2835 40.0858C10.2835 38.4096 10.252 36.7174 10.3307 35.0412C10.5827 29.8848 15.1024 25.5106 20.2047 25.4308C20.8819 25.4308 21.3228 25.6702 21.6693 26.2449C22.2362 27.1709 22.8504 28.0808 23.5118 29.1025V29.0706ZM69.7638 43.3904H2.22047C2.22047 44.7154 2.22047 45.9766 2.22047 47.2377C2.22047 48.6426 2.31496 48.7383 3.73228 48.7383C25.2283 48.7383 46.7402 48.7383 68.2362 48.7383C68.4409 48.7383 68.6457 48.7383 68.8661 48.7383C69.4331 48.7383 69.748 48.435 69.7638 47.8763C69.7638 46.4076 69.7638 44.9389 69.7638 43.3904ZM34.4252 40.9958C34.4252 38.7448 34.6142 36.5737 34.378 34.4664C34.0158 31.114 31.1969 28.3841 27.9055 27.7775C27.3543 27.6817 26.9606 27.7456 26.6299 28.3203C26.0315 29.3579 25.3386 30.3477 24.6929 31.3694C23.9055 32.5827 23.1181 32.5667 22.3307 31.3375C21.6693 30.3318 20.9921 29.342 20.3937 28.3043C20.0787 27.7775 19.7165 27.6817 19.1811 27.7775C15.9213 28.3362 13.1339 31.0342 12.6772 34.3547C12.4409 36.0788 12.5512 37.8668 12.5039 39.6228C12.5039 40.0858 12.5039 40.5488 12.5039 41.0117H34.4409L34.4252 40.9958ZM22.6457 61.6533H49.3858C48.9291 59.6737 47.2126 58.3327 45.1339 58.3168C40.5197 58.3008 35.9055 58.3168 31.3071 58.3168C29.7323 58.3168 28.1417 58.2849 26.5669 58.3327C24.6457 58.3966 22.8819 59.9292 22.6457 61.6533ZM39.8583 56.002C39.4488 54.4216 39.0709 52.9209 38.6614 51.4363C38.6142 51.2607 38.3307 51.0212 38.1417 51.0212C36.6929 50.9893 35.2441 50.9893 33.7953 51.0212C33.6378 51.0212 33.3701 51.2287 33.3228 51.3884C32.8976 52.905 32.5197 54.4216 32.1102 56.002H39.8425H39.8583Z" fill="#0088CA"/>
<path d="M42.8976 25.0636C41.8582 25.0636 40.9133 25.0636 39.9527 25.0636C39.0236 25.0636 38.6299 24.6805 38.6299 23.7226C38.6299 18.7578 38.6299 13.793 38.6299 8.82814C38.6299 7.87029 39.0078 7.47119 39.9527 7.47119C46.7716 7.47119 53.5905 7.47119 60.4094 7.47119C61.3385 7.47119 61.7165 7.87029 61.7165 8.8441C61.7165 13.793 61.7165 18.7259 61.7165 23.6747C61.7165 24.7284 61.3543 25.0796 60.2992 25.0796C56.9606 25.0796 53.6063 25.0796 50.2677 25.0796C49.685 25.0796 49.2598 25.2232 48.8346 25.6543C47.6063 26.9633 46.3149 28.2245 45.0551 29.5176C44.6456 29.9327 44.2204 30.2519 43.6063 29.9965C43.0078 29.7411 42.8976 29.2143 42.8976 28.6396C42.8976 27.4901 42.8976 26.3407 42.8976 25.0955V25.0636ZM40.8661 22.8446C41.874 22.8446 42.8031 22.8446 43.7322 22.8446C44.7559 22.8446 45.1181 23.2277 45.1338 24.2814C45.1338 24.8401 45.1338 25.4148 45.1338 25.9736C45.1968 26.0055 45.2756 26.0374 45.3385 26.0693C46.1732 25.1913 47.0393 24.3293 47.8582 23.4353C48.2677 23.0042 48.7086 22.8286 49.307 22.8286C52.4094 22.8446 55.5275 22.8286 58.6299 22.8286C58.8976 22.8286 59.1811 22.8286 59.4488 22.8286V9.78598H40.8661V22.8446Z" fill="#0088CA"/>
<path d="M23.4802 23.6588C19.1023 23.6588 15.5117 20.019 15.5117 15.581C15.5117 11.127 19.1495 7.43929 23.5432 7.47121C27.9684 7.50314 31.5117 11.143 31.496 15.6448C31.4802 20.0828 27.8897 23.6748 23.496 23.6588H23.4802ZM17.7479 15.5969C17.7479 18.8057 20.3306 21.4238 23.4802 21.4398C26.6456 21.4398 29.2912 18.7738 29.2755 15.565C29.2755 12.3562 26.6928 9.75408 23.5117 9.75408C20.2991 9.75408 17.7322 12.3403 17.7322 15.6129L17.7479 15.5969Z" fill="#0088CA"/>
<path d="M50.1732 12.9788C51.9842 12.9788 53.7952 12.9788 55.622 12.9788C56.2046 12.9788 56.7243 13.0906 56.9763 13.6972C57.307 14.5273 56.7243 15.2457 55.7007 15.2457C53.4172 15.2457 51.1338 15.2457 48.8503 15.2457C47.4802 15.2457 46.1102 15.2457 44.7243 15.2457C43.8109 15.2457 43.3228 14.8626 43.307 14.1442C43.2913 13.3939 43.7795 12.9788 44.7243 12.9788C46.5354 12.9788 48.3464 12.9788 50.1732 12.9788Z" fill="#0088CA"/>
<path d="M50.1415 17.337C51.9841 17.337 53.8266 17.337 55.6691 17.337C56.5825 17.337 57.0392 17.7201 57.0392 18.4545C57.0392 19.1888 56.5825 19.556 55.6534 19.556C51.9998 19.556 48.3463 19.556 44.6927 19.556C43.7793 19.556 43.3069 19.1728 43.3226 18.4385C43.3226 17.7041 43.7793 17.337 44.7085 17.337C46.5195 17.337 48.3305 17.337 50.1573 17.337H50.1415Z" fill="#0088CA"/>
</g>
<defs>
<clipPath id="clip0_3539_1788">
<rect width="72" height="64" fill="white"/>
</clipPath>
</defs>
</svg>
