<svg width="63" height="62" viewBox="0 0 63 62" fill="none" xmlns="http://www.w3.org/2000/svg">
<g clip-path="url(#clip0_3539_1814)">
<path d="M8.18348 39.7115C16.1057 40.2668 23.7374 41.5879 30.449 46.2596C30.4683 46.0107 30.4974 45.8096 30.4974 45.6086C30.4974 33.288 30.4974 20.9674 30.5071 8.64673C30.5071 8.16808 30.3521 7.90003 29.9454 7.6607C25.7034 5.10467 21.1031 3.52511 16.2025 2.88371C13.8297 2.57737 11.4085 2.59651 9.01637 2.47206C8.75488 2.46249 8.50308 2.50078 8.18348 2.51993C8.18348 3.60169 8.18348 4.61644 8.18348 5.64077C8.18348 7.25863 8.19316 8.86691 8.18348 10.4848C8.18348 11.3081 7.61207 11.7389 6.89539 11.5282C6.43052 11.3942 6.20777 11.0783 6.20777 10.6092C6.20777 7.62241 6.19808 4.63559 6.20777 1.64877C6.20777 0.9978 6.57579 0.681887 7.25373 0.634021C15.7764 0.0213405 23.7761 1.66792 31.156 6.02369C31.3303 6.129 31.6693 6.129 31.8339 6.02369C38.5261 2.05084 45.7995 0.346827 53.5667 0.50957C54.3125 0.528717 55.0679 0.576582 55.8136 0.634021C56.4334 0.681887 56.7627 1.01695 56.8015 1.6392C56.8111 1.81152 56.8015 1.98383 56.8015 2.16572C56.8015 14.8118 56.8015 27.4675 56.8015 40.1136C56.8015 41.473 56.5884 41.6645 55.2035 41.7506C49.4991 42.0857 43.9012 42.9951 38.6133 45.264C36.3761 46.2213 34.3035 47.4466 32.5118 49.1124C31.8823 49.6963 31.3981 49.7346 30.817 49.256C26.7203 45.8479 21.9166 43.9237 16.7643 42.7749C13.7038 42.0953 10.595 41.7698 7.44743 41.7315C6.45957 41.7219 6.17871 41.4443 6.17871 40.487C6.17871 32.57 6.17871 24.653 6.17871 16.736C6.17871 15.9032 6.47894 15.5394 7.13751 15.5298C7.82514 15.5202 8.16411 15.9127 8.16411 16.7552C8.16411 24.1456 8.16411 31.5457 8.16411 38.9361C8.16411 39.1754 8.16411 39.4148 8.16411 39.7115H8.18348ZM54.758 39.635V2.49121C52.6757 2.56779 50.6516 2.54865 48.6371 2.72096C43.0393 3.19962 37.8288 4.87492 32.9961 7.71814C32.6281 7.93832 32.4925 8.17765 32.4925 8.59887C32.5022 20.9578 32.4925 33.3263 32.5022 45.6852C32.5022 45.8575 32.5409 46.0394 32.5603 46.2596C39.2719 41.607 46.9035 40.2764 54.758 39.635Z" fill="#0088CA"/>
<path d="M1.88855 45.3118C3.78678 45.4746 5.60753 45.5799 7.4186 45.7905C14.3142 46.6233 20.9968 48.1742 27.0595 51.7067C28.5897 52.597 29.994 53.6979 31.3499 54.636C33.2191 53.4585 35.0592 52.1853 37.0058 51.094C38.4586 50.2803 40.0275 49.6867 41.5577 49.0166C42.255 48.7198 42.8071 48.9305 43.0492 49.5144C43.2719 50.0697 42.9717 50.5483 42.2647 50.8834C40.3181 51.7928 38.3133 52.6161 36.4635 53.6883C34.9914 54.5403 33.7033 55.6987 32.3668 56.7613C31.7179 57.2687 31.2918 57.3644 30.7397 56.8379C27.4856 53.717 23.5342 51.7928 19.2922 50.3951C13.4813 48.4805 7.47671 47.5902 1.37525 47.3509C0.271176 47.3126 0 47.0733 0 46.0011C0 33.422 0 20.8333 0.0193697 8.25422C0.0193697 7.87129 0.193697 7.36392 0.474558 7.12459C1.00723 6.66508 1.81107 7.0863 1.88855 7.78513C1.90792 7.95745 1.88855 8.12977 1.88855 8.31166C1.88855 20.3929 1.88855 32.4742 1.88855 44.5555C1.88855 44.814 1.88855 45.0629 1.88855 45.3118Z" fill="#0088CA"/>
<path d="M55.029 54.1478C55.581 55.2679 56.104 56.3209 56.6173 57.374C57.179 58.5323 56.8982 59.3365 55.736 59.9013C54.7869 60.3608 53.8377 60.8203 52.8789 61.2607C51.7846 61.768 50.9613 61.4808 50.4287 60.4087C49.9057 59.3652 49.3924 58.3121 48.85 57.2112C48.1043 57.5654 47.407 57.8718 46.7194 58.2164C46.0705 58.5323 45.4507 58.5802 44.8599 58.1207C44.3078 57.6803 44.1819 57.1059 44.2885 56.4167C44.8115 53.1905 45.3054 49.9644 45.809 46.7382C46.0318 45.3022 47.1939 44.7087 48.4723 45.398C51.3294 46.9393 54.1767 48.4997 57.0434 50.0409C57.7214 50.4047 58.1378 50.9217 58.0991 51.7067C58.0603 52.4534 57.6439 52.9416 56.9466 53.2384C56.3268 53.5064 55.7166 53.8128 55.029 54.1478ZM52.1332 59.4609C53.0339 59.011 53.8474 58.6089 54.7191 58.1781C54.1961 57.1155 53.7022 56.1007 53.2082 55.086C52.5593 53.7553 52.8015 53.0373 54.1186 52.3768C54.6125 52.1279 55.1161 51.879 55.7166 51.5726C53.0242 50.108 50.4287 48.7007 47.7557 47.2456C47.2811 50.242 46.8356 53.1139 46.3707 56.1007C47.0293 55.804 47.562 55.5551 48.0946 55.3062C49.2278 54.7988 50.0413 55.086 50.5836 56.1965C51.0969 57.2495 51.6005 58.3121 52.1526 59.4609H52.1332Z" fill="#0088CA"/>
<path d="M61.0051 45.4267V44.5747C61.0051 32.5413 61.0051 20.5079 61.0051 8.47444C61.0051 7.3831 61.2957 6.95231 62.0027 6.96189C62.7 6.96189 62.9905 7.4214 62.9905 8.50316C62.9905 20.9961 62.9905 33.489 62.9905 45.982C62.9905 47.2265 62.7581 47.4371 61.4894 47.485C60.0754 47.5424 58.6711 47.6381 57.2668 47.7243C57.1312 47.7243 57.0053 47.7434 56.8697 47.753C56.1821 47.7722 55.6494 47.3701 55.6204 46.8436C55.5913 46.3266 56.0852 45.8384 56.7438 45.7809C58.1287 45.6565 59.504 45.5608 60.9955 45.4363L61.0051 45.4267Z" fill="#0088CA"/>
<path d="M14.6044 33.3454C18.7011 33.4507 22.391 34.2836 25.742 36.3322C25.9647 36.4662 26.1875 36.6098 26.3909 36.7822C26.817 37.1459 26.9042 37.8065 26.5942 38.1894C26.2843 38.5723 25.6839 38.6681 25.219 38.3617C23.0593 36.8875 20.6381 36.0163 18.0716 35.6717C16.4251 35.4515 14.74 35.4802 13.0742 35.4323C12.3575 35.4132 11.9895 35.193 11.8926 34.5803C11.7861 33.9294 12.096 33.5273 12.7643 33.4698C13.4422 33.4124 14.1298 33.3837 14.6044 33.3454Z" fill="#0088CA"/>
<path d="M14.5565 7.43097C18.6919 7.51713 22.4206 8.36914 25.8006 10.4561C25.9846 10.571 26.1686 10.6954 26.343 10.8294C26.7885 11.1932 26.9144 11.8155 26.6238 12.2271C26.3139 12.6675 25.6844 12.7632 25.1614 12.3994C23.515 11.2602 21.6748 10.5518 19.7476 10.0732C17.5782 9.52749 15.3797 9.31688 13.1328 9.49877C12.3483 9.56578 11.9513 9.24986 11.8835 8.58932C11.8254 7.99578 12.1062 7.61286 12.7067 7.55542C13.3846 7.48841 14.0722 7.45969 14.5565 7.43097Z" fill="#0088CA"/>
<path d="M14.6145 15.9127C18.7306 15.9893 22.4689 16.8605 25.8683 18.9761C26.0717 19.1006 26.2848 19.2346 26.4494 19.4069C26.8368 19.7898 26.8949 20.2589 26.6044 20.7184C26.3429 21.1301 25.7037 21.2354 25.2485 20.9386C21.5101 18.507 17.3747 17.6933 12.9681 17.9901C12.3095 18.038 11.9415 17.7316 11.8834 17.1285C11.8156 16.4584 12.0771 16.1042 12.7841 16.0276C13.4427 15.9606 14.1012 15.951 14.6242 15.9223L14.6145 15.9127Z" fill="#0088CA"/>
<path d="M14.6045 24.6818C18.7496 24.7679 22.4783 25.6391 25.8583 27.7356C26.0423 27.8505 26.2263 27.9749 26.391 28.1185C26.8171 28.4919 26.9043 29.1428 26.5847 29.5258C26.2748 29.9087 25.6646 29.9949 25.2094 29.6885C22.8657 28.1089 20.2508 27.2378 17.4616 26.9123C16.0863 26.7496 14.6917 26.7879 13.3164 26.7304C13.0743 26.7304 12.8322 26.74 12.5998 26.6921C12.0574 26.5677 11.8637 26.1656 11.8734 25.6678C11.8831 25.1604 12.1736 24.8541 12.6869 24.8158C13.3842 24.7583 14.0912 24.7296 14.6045 24.6913V24.6818Z" fill="#0088CA"/>
<path d="M48.628 9.42217C44.8509 9.45089 41.2287 10.2742 37.9552 12.342C37.3064 12.7536 36.7059 12.7058 36.3766 12.2271C36.0376 11.7389 36.2313 11.0975 36.8705 10.6763C39.3499 9.04882 42.1004 8.07236 45.0349 7.71815C46.6813 7.51712 48.3665 7.55541 50.0323 7.54584C50.7489 7.54584 51.146 7.96705 51.117 8.51272C51.0879 9.08711 50.5553 9.5179 49.8676 9.49876C49.4705 9.48918 49.0735 9.45089 48.6183 9.42217H48.628Z" fill="#0088CA"/>
<path d="M48.3761 35.3462C44.4924 35.4515 41.0349 36.3035 37.9067 38.2851C37.3063 38.6681 36.7058 38.6106 36.3765 38.1607C36.0472 37.7012 36.2022 37.0406 36.8027 36.6481C39.2917 34.9824 42.0615 34.0059 45.0154 33.6422C46.6618 33.4411 48.347 33.4794 50.0128 33.4698C50.7295 33.4698 51.1362 33.8815 51.1169 34.4176C51.0975 34.992 50.5745 35.4419 49.8772 35.4228C49.3058 35.4132 48.7344 35.3653 48.3664 35.3462H48.3761Z" fill="#0088CA"/>
<path d="M48.2398 24.6817C48.879 24.72 49.5182 24.7391 50.1477 24.787C50.7385 24.8253 51.0968 25.1125 51.1162 25.7252C51.1259 26.2326 50.6707 26.6825 50.0993 26.7495C49.9928 26.7591 49.8765 26.7495 49.77 26.7495C45.499 26.5102 41.4991 27.3718 37.8576 29.6597C37.2862 30.0235 36.6277 29.9182 36.3371 29.4587C36.0563 28.9992 36.2306 28.3769 36.7923 27.994C38.9908 26.5102 41.4313 25.6103 44.0366 25.1412C45.4215 24.8923 46.8258 24.787 48.2204 24.6243C48.2204 24.653 48.2204 24.6721 48.2301 24.7009L48.2398 24.6817Z" fill="#0088CA"/>
<path d="M48.4725 18.0571C44.6761 18.0571 41.112 18.9187 37.8773 20.9674C37.2962 21.3407 36.6473 21.2546 36.3568 20.795C36.0565 20.3355 36.2212 19.7037 36.7829 19.3304C38.9233 17.8848 41.3057 17.0137 43.8238 16.4871C45.8189 16.0659 47.843 15.9798 49.8672 16.0946C50.7291 16.1425 51.1552 16.4871 51.1165 17.1094C51.0778 17.7125 50.5548 18.0859 49.7897 18.0763C49.3539 18.0763 48.9083 18.0763 48.4725 18.0763V18.0571Z" fill="#0088CA"/>
</g>
<defs>
<clipPath id="clip0_3539_1814">
<rect width="63" height="61" fill="white" transform="translate(0 0.5)"/>
</clipPath>
</defs>
</svg>
