<svg width="82" height="82" viewBox="0 0 82 82" fill="none" xmlns="http://www.w3.org/2000/svg">
<g clip-path="url(#clip0_4341_27205)" filter="url(#filter0_d_4341_27205)">
<path d="M26.4142 42.199C23.0149 43.1176 19.7132 44.0203 16.4035 44.8871C15.9532 45.0046 15.9771 45.2577 15.9652 45.5905C15.8416 48.8087 13.2712 51.3194 10.0871 51.3394C7.24969 51.3573 4.81875 49.3646 4.2429 46.547C3.69694 43.8808 5.15151 41.111 7.6761 40.009C10.2664 38.8792 13.2772 39.7201 14.8952 42.0256C15.0366 42.2269 15.1662 42.4381 15.3375 42.7031C18.7966 41.7725 22.2617 40.84 25.7686 39.8954C24.9796 35.0433 26.1213 30.7431 29.1739 27.0287C27.269 25.1177 25.3781 23.2227 23.4473 21.2858C20.4664 23.5575 17.0611 24.4323 13.2931 23.5874C10.394 22.9358 8.04871 21.3795 6.29525 18.9743C2.70663 14.0444 3.39208 7.29725 7.8893 3.12857C12.2949 -0.952431 19.1274 -1.05206 23.7561 2.89343C28.2255 6.70343 29.6183 13.8631 25.3043 19.4386C27.2033 21.3337 29.0982 23.2247 31.023 25.1476C35.9626 21.2779 41.4362 20.4589 47.4478 22.874C48.191 21.525 48.9402 20.162 49.7093 18.7691C48.2966 17.5695 47.4059 16.0989 47.0971 14.2796C46.4435 10.4218 49.0418 6.80705 53.021 6.06777C56.6654 5.39225 60.4134 7.95084 61.1666 11.6293C62.2446 16.896 57.5979 21.3576 52.3674 20.0643C51.9848 19.9687 51.7477 19.9647 51.5345 20.3772C50.9088 21.5887 50.2314 22.7744 49.534 24.0397C51.409 25.3389 53.003 26.9131 54.2046 28.862C55.3941 30.7929 56.1234 32.8872 56.4382 35.2565C60.4712 35.107 64.5041 34.9596 68.559 34.8081C68.8997 33.6504 69.4597 32.68 70.4241 31.9785C72.6438 30.3645 75.7422 30.9423 77.2187 33.2499C78.6753 35.5275 77.9241 38.5623 75.5689 39.9094C73.1997 41.2644 70.1351 40.3418 68.9874 37.8589C68.7224 37.287 68.4355 37.1794 67.8756 37.2053C64.1295 37.3707 60.3815 37.5062 56.5379 37.6557C56.3107 41.1747 55.1371 44.3311 52.8914 46.9953C54.8282 48.9083 56.7431 50.8033 58.6719 52.7103C64.3587 48.2946 71.7252 49.9644 75.4752 54.711C79.1973 59.4256 78.761 66.4299 74.4311 70.6026C69.9658 74.9067 63.1193 75.1479 58.4149 71.2004C53.9097 67.4203 52.4212 60.2785 56.769 54.6074C54.8661 52.7203 52.9652 50.8372 51.1121 48.998C49.8448 49.7253 48.5516 50.616 47.1429 51.2417C43.4407 52.8877 39.6349 52.9674 35.8191 51.6104C35.2951 51.4231 35.0918 51.5247 34.8647 52.0069C34.1753 53.4655 33.432 54.8983 32.6768 56.4087C34.9803 58.1603 36.2535 60.4798 36.2356 63.411C36.2236 65.4475 35.5043 67.2449 34.1773 68.7932C31.569 71.84 27.0439 72.5434 23.5389 70.4471C20.0818 68.3787 18.6292 64.0407 20.0798 60.2466C21.377 56.8591 25.3721 53.8541 30.5448 55.3207C31.3677 53.6788 32.1966 52.0268 33.0515 50.3251C29.9231 48.3583 27.7193 45.6842 26.4142 42.201V42.199ZM41.0237 50.1517C48.2866 50.1338 54.1747 44.2415 54.1527 37.016C54.1308 29.7188 48.2567 23.8962 40.9281 23.9042C33.7329 23.9122 27.8787 29.8683 27.9086 37.1495C27.9385 44.2873 33.8724 50.1717 41.0237 50.1537V50.1517ZM27.9644 57.3134C24.6986 57.2815 21.9867 59.9158 21.9429 63.1619C21.8971 66.4757 24.5272 69.1997 27.809 69.2396C31.1187 69.2794 33.8465 66.6331 33.8704 63.3572C33.8943 60.0494 31.2522 57.3453 27.9624 57.3134H27.9644ZM23.1603 18.1035C25.9798 15.2201 26.749 9.28394 22.7598 5.2428C18.9062 1.33915 12.6356 1.46468 8.92145 5.52576C5.10568 9.69842 6.16972 15.535 8.79393 18.0796C8.8557 15.258 10.113 13.1338 12.4603 11.6632C10.7466 9.16239 10.8204 6.75922 12.6256 4.97379C14.2556 3.36171 16.8339 3.1465 18.7149 4.46167C19.6474 5.11327 20.2711 5.99404 20.574 7.08204C21.0502 8.78777 20.58 10.3002 19.486 11.6672C21.8891 13.1736 23.0866 15.3038 23.1603 18.1015V18.1035ZM62.5494 61.8049C60.8498 58.9334 61.0112 56.5502 62.9858 54.8684C64.7672 53.352 67.3555 53.33 69.1528 54.8246C70.0694 55.5858 70.6193 56.5721 70.8086 57.7418C71.0517 59.2523 70.5815 60.5754 69.5912 61.777C71.9942 63.2715 73.2017 65.4196 73.2814 68.2592C76.4695 64.7361 76.6389 58.5788 72.2991 54.8226C68.2004 51.2736 61.9098 51.9113 58.5723 56.1836C55.1032 60.6232 56.6714 66.2087 58.911 68.1615C58.9807 65.3837 60.2102 63.2675 62.5474 61.8069L62.5494 61.8049ZM54.1587 17.9342C56.7969 17.9302 58.9349 15.7821 58.9269 13.1398C58.919 10.5373 56.7909 8.40119 54.1906 8.38923C51.5445 8.37728 49.3965 10.5035 49.3845 13.1458C49.3726 15.7801 51.5226 17.9381 54.1567 17.9342H54.1587ZM9.98748 41.8044C8.04074 41.8144 6.44071 43.4165 6.43273 45.3633C6.42476 47.3421 8.04273 48.9581 10.0313 48.9561C11.9701 48.9561 13.5861 47.3361 13.5841 45.3972C13.5841 43.4085 11.9661 41.7944 9.98748 41.8044ZM20.5421 16.7166C19.9742 14.5127 18.0096 13.082 15.7599 13.1677C13.6837 13.2454 11.7748 14.8037 11.4341 16.7166H20.5401H20.5421ZM70.6632 66.8583C70.0893 64.6285 68.1246 63.1978 65.875 63.2835C63.7988 63.3632 61.8899 64.9194 61.5512 66.8304C61.7245 66.8404 61.8939 66.8563 62.0652 66.8563C64.9146 66.8563 67.762 66.8563 70.6632 66.8563V66.8583ZM59.9252 69.2754C63.6334 72.6331 69.4059 72.113 72.1915 69.2754H59.9252ZM9.84202 19.1437C13.4386 22.5751 19.5558 21.9374 22.0326 19.1437H9.84202ZM18.3583 8.35934C18.3383 7.05613 17.2663 6.00201 15.9652 6.00599C14.6381 6.00998 13.5582 7.12588 13.594 8.45499C13.6299 9.75222 14.7198 10.7924 16.025 10.7725C17.3141 10.7506 18.3782 9.6506 18.3602 8.35934H18.3583ZM68.4733 58.501C68.4674 57.1958 67.4053 56.1337 66.1042 56.1238C64.7751 56.1158 63.6872 57.2178 63.7091 58.5489C63.731 59.8481 64.811 60.8982 66.1161 60.8903C67.4073 60.8823 68.4813 59.7943 68.4753 58.501H68.4733ZM73.2077 33.4491C71.9105 33.4651 70.8525 34.5531 70.8664 35.8523C70.8804 37.1575 71.9484 38.2156 73.2515 38.2136C74.5806 38.2136 75.6645 37.1037 75.6326 35.7726C75.6008 34.4734 74.5148 33.4312 73.2097 33.4491H73.2077Z" fill="black"/>
<path d="M38.1884 37.5002C36.2177 36.2588 35.1099 34.553 35.076 32.2635C35.0521 30.5657 35.6817 29.113 36.9012 27.9274C39.3461 25.5521 43.2635 25.7434 45.543 28.316C47.4817 30.5039 47.936 34.844 43.917 37.5162C44.1402 37.6198 44.3295 37.7015 44.5128 37.7931C47.4997 39.2857 49.1296 41.6968 49.3687 45.0246C49.4464 46.1145 48.9762 46.5709 47.8743 46.5709C43.3013 46.5749 38.7304 46.5749 34.1574 46.5709C33.0974 46.5709 32.6251 46.1145 32.6929 45.0684C32.9021 41.8343 34.4384 39.4391 37.3117 37.9187C37.5687 37.7832 37.8337 37.6676 38.1864 37.5002H38.1884ZM46.8202 44.1657C46.3161 41.2564 43.5643 39.2039 40.5456 39.4231C37.9274 39.6124 35.349 41.9339 35.2992 44.1657H46.8202ZM44.6065 32.2615C44.6104 30.2807 42.9925 28.6727 41.0019 28.6766C39.0631 28.6806 37.4511 30.3007 37.4551 32.2415C37.4591 34.2302 39.0791 35.8423 41.0577 35.8284C43.0064 35.8144 44.6005 34.2123 44.6045 32.2615H44.6065Z" fill="black"/>
</g>
<defs>
<filter id="filter0_d_4341_27205" x="0" y="0" width="82" height="82" filterUnits="userSpaceOnUse" color-interpolation-filters="sRGB">
<feFlood flood-opacity="0" result="BackgroundImageFix"/>
<feColorMatrix in="SourceAlpha" type="matrix" values="0 0 0 0 0 0 0 0 0 0 0 0 0 0 0 0 0 0 127 0" result="hardAlpha"/>
<feOffset dy="4"/>
<feGaussianBlur stdDeviation="2"/>
<feComposite in2="hardAlpha" operator="out"/>
<feColorMatrix type="matrix" values="0 0 0 0 0 0 0 0 0 0 0 0 0 0 0 0 0 0 0.25 0"/>
<feBlend mode="normal" in2="BackgroundImageFix" result="effect1_dropShadow_4341_27205"/>
<feBlend mode="normal" in="SourceGraphic" in2="effect1_dropShadow_4341_27205" result="shape"/>
</filter>
<clipPath id="clip0_4341_27205">
<rect width="74" height="74" fill="white" transform="translate(4)"/>
</clipPath>
</defs>
</svg>
