<svg width="64" height="64" viewBox="0 0 64 64" fill="none" xmlns="http://www.w3.org/2000/svg">
<path d="M33.5414 50.0662C33.3782 49.8919 33.22 49.7137 33.0509 49.5445C28.0114 44.5007 22.968 39.4609 17.9336 34.4121C16.0746 32.5476 15.8914 29.9171 17.462 28.0306C19.2199 25.9197 22.2923 25.7615 24.3034 27.7221C26.1644 29.5356 27.9834 31.3931 29.8214 33.2295C29.9896 33.3978 30.1677 33.557 30.382 33.7583C31.2339 31.7015 32.7445 30.6521 34.8838 30.5509C35.7167 26.4294 37.6788 25.2148 41.6611 26.2522C42.0846 25.6053 42.415 24.9074 42.9175 24.3696C44.6894 22.4761 47.5965 22.4411 49.4756 24.2805C51.6339 26.3934 53.7522 28.5483 55.8885 30.6831C56.0396 30.8343 56.2008 30.9755 56.4261 31.1848V11.5444H2.50993V12.2303C2.50993 23.0068 2.50993 33.7833 2.50993 44.5588C2.50993 46.1119 3.1256 46.7267 4.69429 46.7277C9.13507 46.7317 13.5759 46.7287 18.0166 46.7297C18.2389 46.7297 18.4621 46.7187 18.6824 46.7437C19.4202 46.8258 19.8706 47.3295 19.8496 48.0284C19.8286 48.7144 19.3371 49.207 18.5933 49.221C17.417 49.2421 16.2397 49.229 15.0635 49.229C11.5557 49.229 8.0469 49.2341 4.53912 49.228C1.78415 49.223 0.00423007 47.4416 0.00322899 44.6749C0.000225753 31.299 0.000225753 17.923 0.00322899 4.54701C0.00423007 1.78129 1.77514 0.0039019 4.54312 0.00290055C21.1741 -0.00210617 37.805 -0.00210617 54.4359 0.00290055C57.2049 0.00290055 58.9718 1.77829 58.9738 4.54901C58.9788 14.0368 58.9798 23.5245 58.9648 33.0113C58.9648 33.535 59.111 33.9095 59.4513 34.312C63.8641 39.531 65.1465 45.472 62.9471 51.9217C60.7727 58.2992 56.1768 62.1895 49.5767 63.6244C46.3752 64.3203 43.2238 64.0169 40.1385 62.9415C36.0571 61.5196 31.9717 60.1117 27.8973 58.6697C24.3715 57.4211 23.4155 53.0942 26.1004 50.5849C27.2876 49.4754 28.7162 49.1139 30.2939 49.4203C31.357 49.6266 32.4042 49.912 33.4583 50.1623C33.4853 50.1303 33.5124 50.0972 33.5394 50.0652L33.5414 50.0662ZM61.4455 45.491C61.4024 42.0364 60.0179 38.4446 57.1458 35.4946C54.0785 32.3434 50.9472 29.2542 47.8208 26.1611C47.5074 25.8506 47.056 25.6043 46.6275 25.5022C45.7005 25.2819 44.8125 25.7385 44.3741 26.5386C43.9196 27.3677 44.0357 28.335 44.7415 29.0549C46.2811 30.624 47.8458 32.1701 49.3965 33.7292C49.5687 33.9015 49.7479 34.0757 49.879 34.277C50.2023 34.7726 50.1233 35.3905 49.7118 35.804C49.3074 36.2116 48.6717 36.2987 48.1842 35.9842C47.982 35.8541 47.8088 35.6738 47.6366 35.5016C45.4833 33.3517 43.3309 31.2008 41.1826 29.0449C40.63 28.4902 39.9863 28.1968 39.2005 28.346C38.3966 28.4982 37.825 28.9718 37.5667 29.7499C37.2814 30.608 37.5017 31.3701 38.1393 32.0089C40.2736 34.1458 42.4099 36.2826 44.5452 38.4195C44.6864 38.5607 44.8356 38.6969 44.9577 38.8541C45.3801 39.4008 45.3321 40.0838 44.8516 40.5404C44.3991 40.9699 43.7274 40.995 43.2128 40.5904C43.0566 40.4673 42.9185 40.3211 42.7763 40.1799C40.6711 38.0751 38.5638 35.9742 36.4655 33.8624C35.8579 33.2506 35.1611 32.9352 34.3032 33.1454C32.6484 33.551 32.1359 35.5176 33.3742 36.7763C35.3684 38.803 37.3905 40.8017 39.3987 42.8134C39.5709 42.9857 39.7521 43.1549 39.8952 43.3511C40.2496 43.8368 40.1926 44.5207 39.7831 44.9413C39.3577 45.3779 38.717 45.454 38.2054 45.0995C37.9892 44.9493 37.805 44.749 37.6168 44.5618C32.7015 39.6452 27.7872 34.7266 22.8719 29.811C22.6687 29.6077 22.4654 29.3954 22.2322 29.2312C21.3522 28.6103 20.167 28.7525 19.4512 29.5466C18.7514 30.3226 18.7164 31.4802 19.3781 32.2973C19.5313 32.4865 19.7125 32.6538 19.8847 32.826C26.0703 39.0163 32.257 45.2066 38.4417 51.398C39.0513 52.0078 39.1805 52.5575 38.8651 53.1173C38.5508 53.674 38.0202 53.8432 37.1813 53.641C34.8328 53.0742 32.4842 52.5055 30.1367 51.9327C29.2107 51.7064 28.3658 51.8155 27.6851 52.5405C26.5178 53.7852 27.0274 55.7047 28.7072 56.2985C32.4062 57.6053 36.1222 58.863 39.8151 60.1858C41.6211 60.8326 43.4441 61.3654 45.3671 61.4615C54.1206 61.8981 61.4445 54.9187 61.4455 45.491ZM2.51594 8.9299H56.4611C56.4611 7.30271 56.4891 5.72759 56.4401 4.15348C56.4291 3.78799 56.2168 3.38545 55.9896 3.08004C55.5591 2.50126 54.8904 2.49825 54.2327 2.49825C37.7359 2.50126 21.2391 2.50126 4.74134 2.50126C4.54212 2.50126 4.34091 2.49925 4.14269 2.51728C3.22771 2.59939 2.54497 3.24426 2.52495 4.15548C2.48991 5.7296 2.51494 7.30471 2.51494 8.9309L2.51594 8.9299Z" fill="black"/>
</svg>
