<svg width="78" height="62" viewBox="0 0 78 62" fill="none" xmlns="http://www.w3.org/2000/svg">
<g clip-path="url(#clip0_4341_27189)">
<path d="M75.1107 20.9826H73.9151C63.5655 20.9826 53.2169 20.9826 42.8673 20.9826C42.6562 20.9826 42.4462 20.9847 42.2352 20.9826C41.1041 20.968 40.4428 20.4232 40.4543 19.517C40.4657 18.6181 41.1238 18.09 42.2705 18.09C52.8301 18.0869 63.3908 18.0879 73.9504 18.0879H75.0982C75.0982 15.5797 75.1315 13.1474 75.0795 10.7173C75.0628 9.93402 74.5066 9.47466 73.7103 9.41841C73.2008 9.38195 72.6883 9.40591 72.1768 9.40591C62.3688 9.40591 52.5609 9.40591 42.754 9.40591C42.4535 9.40591 42.151 9.42153 41.8516 9.39549C41.0084 9.3205 40.4314 8.69968 40.4553 7.91533C40.4782 7.16224 41.0386 6.5935 41.8443 6.52163C42.0834 6.49976 42.3256 6.5133 42.5658 6.5133C52.7646 6.5133 62.9635 6.5133 73.1624 6.5133C76.2803 6.5133 77.9977 8.24762 77.9988 11.3965C77.9988 26.4678 77.9998 41.5392 77.9988 56.6105C77.9988 59.7948 76.2803 61.5 73.0761 61.5C54.2129 61.5 35.3496 61.5 16.4854 61.5C13.2781 61.5 11.5617 59.7969 11.5617 56.6116C11.5606 47.84 11.5617 39.0684 11.5617 30.2969C11.5617 30.026 11.5346 29.7479 11.5835 29.4844C11.728 28.7053 12.2083 28.2355 13.0057 28.2355C13.8042 28.2355 14.2834 28.7084 14.4248 29.4865C14.4778 29.7792 14.4487 30.0875 14.4487 30.3885C14.4487 39.0997 14.4487 47.8108 14.4498 56.522C14.4498 58.1834 14.8687 58.6042 16.5249 58.6042C35.358 58.6042 54.191 58.6042 73.0251 58.6042C74.6865 58.6042 75.1096 58.1844 75.1096 56.5303C75.1096 45.0161 75.1096 33.5009 75.1096 21.9867V20.9805L75.1107 20.9826Z" fill="black"/>
<path d="M20.1919 0.5C24.2185 0.768741 27.747 2.17911 31.0302 4.31445C34.4423 6.53313 37.3294 9.32678 39.8598 12.5006C40.6687 13.5162 40.6708 13.9777 39.8692 14.9787C36.8303 18.7713 33.3267 22.0284 29.0299 24.3659C22.8368 27.7355 16.7289 27.4866 10.6886 23.9544C6.68701 21.6149 3.38616 18.489 0.503238 14.8881C-0.025939 14.2277 -0.222431 13.5443 0.337935 12.8381C4.20851 7.95495 8.69976 3.83426 14.685 1.726C16.4461 1.10519 18.3528 0.896861 20.1919 0.5ZM37.1245 13.812C37.0154 13.6339 36.9655 13.5256 36.8917 13.4371C34.3851 10.4695 31.5427 7.89454 28.1629 5.94877C23.8837 3.48531 19.4299 2.79367 14.7661 4.74256C10.3039 6.60708 6.77746 9.7101 3.63983 13.3152C3.26348 13.7475 3.487 13.9902 3.75627 14.3027C5.91248 16.8015 8.28182 19.0806 11.1065 20.7931C12.6629 21.7357 14.3367 22.5315 16.0427 23.1669C18.621 24.1273 21.2929 24.1284 23.9346 23.3357C29.4271 21.6889 33.4588 18.0192 37.1245 13.811V13.812Z" fill="black"/>
<path d="M69.3336 42.6881C69.3336 45.914 69.3367 49.1389 69.3326 52.3648C69.3305 53.7804 68.8502 54.2616 67.4352 54.2637C63.8849 54.2679 60.3345 54.2679 56.7841 54.2637C55.3702 54.2616 54.892 53.7825 54.892 52.3628C54.8889 45.9119 54.8889 39.4611 54.892 33.0103C54.892 31.5905 55.3681 31.1145 56.7862 31.1135C60.3366 31.1093 63.8869 31.1093 67.4373 31.1135C68.8512 31.1145 69.3305 31.5947 69.3326 33.0124C69.3367 36.2383 69.3336 39.4632 69.3336 42.6891V42.6881ZM57.8425 34.0478V51.2992H66.3987V34.0478H57.8425Z" fill="black"/>
<path d="M44.7804 39.7944C46.6154 39.7944 48.4514 39.7861 50.2863 39.7976C51.4653 39.8048 51.9955 40.3309 51.9976 41.5131C52.0069 45.1911 52.0069 48.8681 51.9976 52.5461C51.9945 53.7262 51.4622 54.2575 50.2832 54.2606C46.6123 54.27 42.9423 54.27 39.2714 54.2606C38.0924 54.2575 37.5653 53.7262 37.5622 52.543C37.5528 48.865 37.5528 45.188 37.5622 41.51C37.5653 40.3267 38.0914 39.8048 39.2745 39.7976C41.1094 39.7861 42.9454 39.7944 44.7804 39.7944ZM40.5106 42.7297V51.3003H49.0658V42.7297H40.5106Z" fill="black"/>
<path d="M27.5163 45.5828C29.2608 45.5828 31.0063 45.5797 32.7508 45.5828C34.2084 45.5859 34.6669 46.0578 34.67 47.5494C34.6731 49.1473 34.6742 50.7451 34.67 52.342C34.6659 53.7721 34.1928 54.2607 32.7956 54.2627C29.215 54.2669 25.6356 54.2679 22.055 54.2627C20.7451 54.2607 20.2377 53.7627 20.2305 52.4774C20.2221 50.7889 20.2232 49.1015 20.2305 47.413C20.2357 46.0713 20.7326 45.587 22.1008 45.5828C23.9056 45.5776 25.7114 45.5818 27.5163 45.5818V45.5828ZM23.1581 51.3087H31.7102V48.4775H23.1581V51.3087Z" fill="black"/>
<path d="M65.0721 28.2178C64.1697 28.2178 63.2673 28.2272 62.3649 28.2157C61.3107 28.2022 60.664 27.6324 60.6754 26.7533C60.6869 25.9065 61.3169 25.3377 62.3129 25.3294C64.1177 25.3138 65.9225 25.3117 67.7273 25.3304C68.7098 25.3408 69.3388 25.9419 69.3263 26.7908C69.3138 27.6418 68.689 28.197 67.6889 28.2147C66.8166 28.2293 65.9443 28.2178 65.0721 28.2178Z" fill="black"/>
<path d="M60.66 13.7725C60.6454 14.5558 59.9759 15.2016 59.1962 15.187C58.4133 15.1714 57.7708 14.5047 57.7864 13.7204C57.801 12.9329 58.4643 12.2923 59.2481 12.3069C60.032 12.3215 60.6745 12.9892 60.6589 13.7725H60.66Z" fill="black"/>
<path d="M66.4371 13.7038C66.4611 14.4839 65.8238 15.1631 65.043 15.187C64.2622 15.211 63.5885 14.5746 63.5646 13.7892C63.5407 13.0038 64.1728 12.3319 64.9577 12.3069C65.7396 12.283 66.4132 12.9184 66.4371 13.7038Z" fill="black"/>
<path d="M70.8065 12.3068C71.5904 12.3235 72.2308 12.9933 72.2142 13.7766C72.1976 14.5599 71.526 15.2047 70.7473 15.1869C69.9644 15.1692 69.324 14.5005 69.3417 13.7162C69.3583 12.9297 70.0237 12.2902 70.8076 12.3068H70.8065Z" fill="black"/>
<path d="M56.3372 25.3304C57.1211 25.3325 57.773 25.9877 57.7719 26.7731C57.7699 27.5564 57.1128 28.2126 56.332 28.2106C55.5492 28.2085 54.8973 27.5522 54.8994 26.7669C54.9015 25.9794 55.5534 25.3294 56.3383 25.3304H56.3372Z" fill="black"/>
<path d="M13.0088 13.7433C13.0109 9.75072 16.2649 6.50291 20.252 6.51333C24.2338 6.52375 27.465 9.79343 27.4452 13.7933C27.4265 17.7421 24.1922 20.9701 20.2468 20.9795C16.2618 20.9878 13.0067 17.7338 13.0088 13.7433ZM20.2821 9.40802C17.918 9.38198 15.9437 11.2923 15.899 13.6475C15.8532 16.0568 17.7828 18.0609 20.174 18.0859C22.5392 18.1109 24.5103 16.2036 24.5571 13.8464C24.6049 11.435 22.6774 9.43406 20.2821 9.40907V9.40802Z" fill="black"/>
</g>
<defs>
<clipPath id="clip0_4341_27189">
<rect width="78" height="61" fill="white" transform="translate(0 0.5)"/>
</clipPath>
</defs>
</svg>
