<svg width="64" height="64" viewBox="0 0 64 64" fill="none" xmlns="http://www.w3.org/2000/svg">
<g clip-path="url(#clip0_3048_2600)">
<path d="M0.00166945 3.41866C0.268781 2.83769 0.45242 2.19662 0.816359 1.68577C2.17863 -0.224073 4.85809 -0.531251 6.66777 0.964573C6.84306 1.10981 7.00834 1.26841 7.21034 1.45038C8.08346 0.540533 9.12185 0.00631037 10.4107 0.0280132C12.5442 0.0630715 14.3355 1.76591 14.3756 3.89946C14.4173 6.10647 14.389 8.31515 14.3923 10.5238C14.3923 10.7509 14.3923 10.9762 14.3923 11.2467H19.5258C19.5258 10.5772 19.5359 9.91781 19.5242 9.25838C19.4925 7.51214 20.1252 6.10981 21.7028 5.26841C23.252 4.44203 24.7545 4.6624 26.2187 5.70246C27.0667 4.40196 28.202 3.5422 29.8263 3.53385C31.454 3.5255 32.6277 4.31849 33.5008 5.70747C34.4156 5.03969 35.414 4.67909 36.5375 4.79929C37.6677 4.91949 38.5842 5.45204 39.2403 6.21498C40.0116 5.93451 40.7028 5.53385 41.4323 5.44704C43.4774 5.2033 45.1418 6.7492 45.2136 8.85104C45.2403 9.63735 45.2186 10.427 45.2186 11.2534H49.6026C49.6026 10.3752 49.6026 9.52716 49.6026 8.67742C49.6026 7.24002 49.6176 5.80263 49.5993 4.36523C49.5759 2.51215 50.3422 1.11315 52.0467 0.375258C53.7478 -0.362637 55.3021 0.00797999 56.6293 1.30848C56.6727 1.35021 56.7295 1.38026 56.8096 1.43703C57.666 0.55055 58.6844 0.0179965 59.9482 0.0263437C62.0333 0.0396993 63.7879 1.63903 63.9782 3.71916C63.9966 3.92617 63.9932 4.13485 63.9932 4.34353C63.9932 5.98794 63.9932 7.63234 63.9932 9.32683H62.1168C62.1168 8.19662 62.1168 7.07809 62.1168 5.96123C62.1168 5.35689 62.1251 4.75255 62.1151 4.14821C62.09 2.85272 61.1602 1.90781 59.9231 1.90781C58.6844 1.90781 57.7428 2.85439 57.7411 4.14821C57.7345 12.0447 57.7345 19.9395 57.7411 27.836C57.7411 29.1265 58.6927 30.068 59.9365 30.063C61.1702 30.0563 62.1101 29.1081 62.1118 27.8093C62.1218 22.5806 62.1151 17.3519 62.1151 12.1215C62.1151 11.856 62.1151 11.5889 62.1151 11.2868H63.9916V12.0063C63.9916 17.1515 63.9749 22.2984 63.9999 27.4437C64.0099 29.3619 63.3004 30.8427 61.5124 31.6073C59.7545 32.3585 58.1735 31.9094 56.8029 30.5305C56.6527 30.6607 56.5058 30.7942 56.3538 30.9211C55.0517 32.0146 53.5876 32.27 52.04 31.5972C50.4924 30.9245 49.6427 29.6791 49.6126 27.9779C49.5725 25.7909 49.6009 23.6039 49.5993 21.4153C49.5993 21.1916 49.5993 20.9695 49.5993 20.7108H46.2771C46.2771 21.6273 46.3188 22.5372 46.2687 23.442C46.1736 25.1582 45.5976 26.7325 44.7345 28.2083C44.1786 29.1599 43.6176 30.1098 43.0684 31.068C42.9682 31.2433 42.868 31.442 42.8497 31.639C42.7946 32.2383 42.7963 32.7191 43.5442 33.0563C44.7629 33.6073 45.3188 34.7275 45.3321 36.053C45.3589 38.5321 45.3622 41.0113 45.3321 43.4904C45.3138 44.9478 44.636 46.048 43.2921 46.6607C42.9215 46.8293 42.828 47.0263 42.8297 47.4052C42.843 50.447 42.838 65.2304 42.838 68.2721V69H40.9599V54.5304H38.8046V52.644H40.9014V50.7608H36.9231V48.8743H40.9048V47.0213H24.0601V69.0134H22.1552V68.2821C22.1552 65.2621 22.1485 50.4987 22.1619 47.4787C22.1636 47.0647 22.0818 46.836 21.651 46.6373C20.3656 46.0446 19.6828 44.9729 19.6611 43.5638C19.6243 41.043 19.626 38.5221 19.6611 36.0012C19.6811 34.6189 20.3522 33.5822 21.5859 32.9378C22.2687 32.5822 22.419 31.4954 21.8347 30.9545C20.6127 29.8226 19.3973 28.6824 18.1435 27.5839C17.7562 27.245 17.6277 26.9011 17.6344 26.4036C17.6611 24.634 17.6444 22.8627 17.6427 21.0914C17.6427 20.9712 17.6193 20.8527 17.6043 20.7074H14.3906C14.3906 20.9512 14.3906 21.1732 14.3906 21.3936C14.3906 23.3736 14.3522 25.3535 14.4023 27.3301C14.4507 29.2667 13.7813 30.7859 11.9666 31.5856C10.187 32.3685 8.59264 31.9144 7.207 30.5271C7.09849 30.624 6.99498 30.7141 6.89314 30.8076C4.56093 32.9545 0.999998 31.9462 0.126878 28.8894C0.093489 28.7709 0.0417362 28.6574 0 28.5422C0 22.7926 0 17.0413 0 11.2918H1.87646C1.87646 11.5956 1.87646 11.841 1.87646 12.0881C1.87646 17.3151 1.87312 22.5422 1.8798 27.7692C1.88147 29.1081 2.81636 30.0647 4.07846 30.0614C5.31552 30.058 6.25041 29.1131 6.25208 27.8126C6.25875 19.9195 6.25875 12.0263 6.25208 4.13318C6.25208 2.8427 5.29882 1.90113 4.05676 1.90614C2.8247 1.91115 1.89148 2.86106 1.8798 4.15822C1.86644 5.65739 1.87646 7.15655 1.87646 8.65738C1.87646 8.87775 1.87646 9.09812 1.87646 9.41698H0.00166945C0.00166945 7.41865 0.00166945 5.41866 0.00166945 3.41866ZM40.9248 32.5922C40.9398 32.3084 40.9766 32.1214 40.9565 31.9428C40.8764 31.2467 41.0968 30.6557 41.4657 30.068C42.1168 29.028 42.7178 27.9562 43.3221 26.8877C44.4089 24.9662 44.5826 22.8811 44.4256 20.664H40.434V18.7592H49.5642V13.1966H45.1702C44.8614 14.5121 44.1151 15.4353 42.8514 15.8677C41.5592 16.3085 40.4006 15.9529 39.3472 15.1014C38.5943 16.008 37.6677 16.5272 36.5425 16.654C35.4173 16.7809 34.4206 16.4136 33.5024 15.7442C32.631 17.1298 31.4574 17.9278 29.833 17.9211C28.2103 17.9145 27.0684 17.058 26.2253 15.7609C25.8213 16.0063 25.4707 16.22 25.1869 16.3919C25.3973 17.2183 25.5943 17.9913 25.808 18.8343H38.4691V20.6958H25.6444V22.9679H23.7863C23.7863 21.5923 23.7929 20.2634 23.7813 18.9345C23.7779 18.5839 23.7696 18.2183 23.6677 17.8878C23.3706 16.9128 22.3672 16.3018 21.3839 16.4453C20.2905 16.6039 19.5392 17.4854 19.5325 18.6874C19.5175 21.0831 19.5175 23.4787 19.5425 25.8727C19.5459 26.1215 19.7028 26.4286 19.8881 26.6039C21.1285 27.7776 22.4073 28.9111 23.6427 30.0897C23.8514 30.2884 23.9866 30.6373 24.02 30.9311C24.0801 31.4587 24.0367 31.9962 24.0367 32.6006H30.2203V34.4553C29.9599 34.4553 29.7362 34.4553 29.5108 34.4553C27.4908 34.4553 25.4707 34.4503 23.4507 34.457C22.1302 34.4603 21.5375 35.0497 21.5342 36.3635C21.5275 38.634 21.5292 40.9044 21.5342 43.1749C21.5375 44.5371 22.1068 45.1164 23.4741 45.1181C29.4924 45.1231 35.5108 45.1231 41.5291 45.1181C42.8931 45.1181 43.464 44.5355 43.4674 43.1715C43.4724 40.9428 43.4707 38.7141 43.4674 36.4854C43.4674 35.0113 42.9081 34.457 41.4206 34.4553C38.5893 34.4537 35.7562 34.4553 32.9248 34.4553H32.1669V32.5972H40.9281L40.9248 32.5922ZM12.5158 15.9929C12.5158 13.9946 12.5158 11.9946 12.5158 9.99628C12.5158 8.01798 12.5292 6.03969 12.5075 4.0614C12.4941 2.79095 11.5025 1.87442 10.2454 1.91115C8.99164 1.94621 8.13688 2.93285 8.13688 4.3619C8.13521 12.1081 8.13688 19.8544 8.13688 27.6023C8.13688 27.7475 8.13187 27.8944 8.14523 28.0397C8.25374 29.24 9.22202 30.0981 10.4207 30.0647C11.626 30.0296 12.5092 29.0947 12.5125 27.8026C12.5208 23.866 12.5158 19.9312 12.5158 15.9946V15.9929ZM51.4807 15.9529C51.4807 19.9095 51.474 23.866 51.4841 27.8226C51.4874 29.1281 52.4156 30.063 53.6593 30.063C54.8947 30.063 55.8513 29.1215 55.853 27.826C55.863 19.9328 55.8664 12.0413 55.8363 4.14821C55.8346 3.66574 55.6109 3.12484 55.3321 2.71749C54.8196 1.96624 53.8413 1.72584 52.9882 2.00965C52.0717 2.31349 51.4874 3.08644 51.4841 4.08143C51.474 8.03802 51.4807 11.9946 51.479 15.9512L51.4807 15.9529ZM32.0584 10.7509C32.0584 9.79427 32.0701 8.83601 32.0517 7.87942C32.045 7.53051 32.0166 7.1649 31.9048 6.83935C31.5676 5.85271 30.5692 5.28009 29.5325 5.42867C28.4808 5.58059 27.7011 6.4487 27.6828 7.61231C27.651 9.67241 27.651 11.7325 27.6794 13.7926C27.6978 15.1148 28.631 16.0413 29.858 16.0447C31.1151 16.048 32.025 15.1115 32.0534 13.7475C32.0751 12.7492 32.0567 11.7509 32.0584 10.7509ZM25.7796 10.7442H25.7779C25.7779 10.058 25.8096 9.37024 25.7712 8.68576C25.7095 7.5856 24.8364 6.72917 23.7646 6.6674C22.6327 6.60062 21.5793 7.31849 21.4941 8.43868C21.3806 9.94452 21.3806 11.4721 21.4858 12.9796C21.5642 14.1048 22.611 14.846 23.7295 14.7909C24.8313 14.7358 25.7145 13.8694 25.7746 12.7392C25.8096 12.0764 25.7813 11.4086 25.7813 10.7442H25.7796ZM38.3271 10.7125H38.3238C38.3238 10.0881 38.3505 9.46372 38.3188 8.84102C38.2504 7.53384 37.3105 6.63735 36.0701 6.66406C34.8681 6.6891 33.9766 7.60563 33.9499 8.89945C33.9248 10.1048 33.9265 11.3118 33.9499 12.5171C33.9732 13.8427 34.8731 14.7759 36.0984 14.7926C37.3522 14.8093 38.2804 13.8727 38.3255 12.5221C38.3455 11.9195 38.3288 11.3168 38.3288 10.7141L38.3271 10.7125ZM20.1268 14.8327C19.9048 14.2367 19.7112 13.7191 19.5225 13.2133H14.4441V18.7675H17.631C17.6728 16.9428 18.4941 15.6223 20.1268 14.8327ZM40.2186 10.7392C40.2186 11.3853 40.1936 12.0313 40.2253 12.6757C40.2654 13.5171 40.8981 14.1315 41.7011 14.1649C42.4824 14.1966 43.2303 13.6707 43.2737 12.8644C43.3522 11.4537 43.3539 10.0347 43.2821 8.62399C43.2387 7.78259 42.4907 7.25004 41.6744 7.29511C40.868 7.33852 40.2587 7.95121 40.222 8.80429C40.1936 9.4487 40.217 10.0948 40.2186 10.7409V10.7392Z" fill="#0088CA"/>
<path d="M34.9687 50.7141H33.1523V48.9128H34.9687V50.7141Z" fill="#0088CA"/>
<path d="M23.165 36.3702H24.963V38.1682H23.165V36.3702Z" fill="#0088CA"/>
<path d="M28.7001 38.1765H26.9121V36.3652H28.7001V38.1765Z" fill="#0088CA"/>
</g>
<defs>
<clipPath id="clip0_3048_2600">
<rect width="64" height="64" fill="white"/>
</clipPath>
</defs>
</svg>
