<svg width="64" height="62" viewBox="0 0 64 62" fill="none" xmlns="http://www.w3.org/2000/svg">
<g clip-path="url(#clip0_3048_2756)">
<path d="M64 61.3797H58.1584V59.5747H61.9815V37.1048H48.3267V59.5398H52.4572V61.3697H0V52.0072C0.198841 51.9972 0.417733 51.9772 0.636625 51.9772C2.03352 51.9739 3.43042 51.964 4.82732 51.9839C5.18657 51.9889 5.33862 51.8609 5.43387 51.5268C7.34374 44.9416 9.28369 38.3664 11.1618 31.7728C11.5511 30.4066 11.7182 28.9772 11.9973 27.5245C12.6222 27.6425 13.2037 27.7522 13.9673 27.8968C13.3123 30.4897 12.7342 33.0277 12.0257 35.5292C10.5469 40.7498 8.99796 45.9522 7.47909 51.1628C7.41058 51.3972 7.36379 51.6382 7.28693 51.959C7.88178 51.959 8.42316 51.9989 8.95285 51.934C9.10156 51.9158 9.272 51.6066 9.33215 51.4005C10.5937 47.1738 11.8419 42.9404 13.0917 38.7104C13.4911 37.3591 13.9055 36.0128 14.2865 34.6582C14.3767 34.3391 14.5154 34.2344 14.8446 34.2344C18.6392 34.246 22.4339 34.2427 26.2286 34.2444C26.2888 34.2444 26.3489 34.266 26.4909 34.2909C25.5569 38.2816 24.6262 42.2607 23.6804 46.2962H25.5853C25.8677 45.1278 26.1618 43.9277 26.4458 42.726C27.0557 40.1465 27.6121 37.5519 28.2855 34.9873C28.6682 33.5313 27.6806 32.2432 26.1568 32.3396C24.6228 32.436 23.0789 32.3612 21.4598 32.3612C21.692 31.0016 21.9109 29.7035 22.1365 28.4071C22.7865 24.6724 23.4498 20.9377 24.0815 17.1996C24.1567 16.7558 24.3204 16.5747 24.7649 16.4999C26.14 16.2688 27.5085 15.9979 28.8754 15.722C29.1043 15.6755 29.3583 15.5641 29.5187 15.4029C32.5915 12.3297 35.6527 9.24483 38.7155 6.16164C38.7589 6.11843 38.7907 6.06524 38.804 6.04696C38.3796 5.62312 37.9619 5.20428 37.504 4.74554C37.4038 4.83695 37.2384 4.98156 37.083 5.13447C34.1772 8.02319 31.2815 10.9186 28.359 13.7907C28.0884 14.0566 27.6723 14.2627 27.2947 14.3242C23.3479 14.9624 19.3945 15.5508 15.4478 16.1857C13.862 16.4417 12.4869 17.1797 11.3556 18.3082C8.56018 21.0989 5.78978 23.9161 3.00935 26.7234C2.95254 26.7816 2.90742 26.8497 2.86899 26.8963C3.30009 27.3367 3.71448 27.7622 4.15561 28.2126C4.30098 28.0763 4.45136 27.9384 4.59673 27.7955C7.31032 25.0979 10.0707 22.4435 12.7074 19.6745C13.5613 18.7769 14.4435 18.7237 15.5447 18.8551C15.0935 21.2302 14.6474 23.5837 14.1895 25.9921C13.5546 25.8724 12.9714 25.761 12.3549 25.6447C12.5687 24.4846 12.7743 23.3759 12.9898 22.2075C10.0339 25.1527 7.13989 28.0381 4.26589 30.9036C2.87734 29.5124 1.57569 28.2077 0.113623 26.7433C0.382643 26.5389 0.750248 26.3228 1.04099 26.032C3.78633 23.2779 6.56008 20.5504 9.24025 17.7348C11.2387 15.6356 13.6198 14.4638 16.4887 14.0882C19.854 13.6477 23.2025 13.0909 26.5544 12.559C26.8552 12.5108 27.1794 12.3247 27.3983 12.1086C30.6248 8.92404 33.8347 5.72285 37.0462 2.52332C37.2066 2.3621 37.3353 2.17096 37.469 2.00641C38.8375 3.38595 40.1358 4.69401 41.4608 6.03034C41.384 6.1151 41.2653 6.25638 41.1367 6.38602C37.6344 9.91132 34.1355 13.4416 30.6165 16.9503C30.3591 17.2063 29.9715 17.3957 29.6139 17.4788C28.4994 17.7348 27.3648 17.906 26.2487 18.157C26.0532 18.2002 25.7942 18.4528 25.7607 18.644C25.069 22.4768 24.4073 26.3162 23.7406 30.154C23.7272 30.2321 23.7389 30.3152 23.7389 30.4914C24.6613 30.4914 25.5703 30.4764 26.4776 30.4947C28.2671 30.5296 29.7092 31.61 30.1252 33.3252C30.2656 33.907 30.2689 34.5751 30.1386 35.1602C29.3499 38.6772 28.5027 42.1809 27.6756 45.6879C27.6339 45.8674 27.6004 46.0486 27.552 46.2896H31.0158V40.7714H46.3617C46.3734 40.5038 46.3934 40.2861 46.3934 40.0684C46.3967 38.6157 46.4018 37.1647 46.3901 35.712C46.3867 35.363 46.4552 35.1818 46.8646 35.1835C52.514 35.1951 58.1651 35.1951 63.8145 35.1984C63.8764 35.1984 63.9382 35.2283 64 35.2433V61.3781V61.3797ZM32.9474 42.6645V59.5032H46.3566V42.6645H32.9474ZM17.4596 59.4866H30.9824V48.2575H17.4596V59.4866ZM15.5514 46.3428C15.8571 46.3428 16.081 46.3428 16.3049 46.3428C17.9508 46.3428 19.5967 46.3311 21.2409 46.3511C21.6285 46.3561 21.7756 46.2297 21.8608 45.8541C22.3855 43.5322 22.9385 41.2185 23.4799 38.9016C23.6938 37.9891 23.9043 37.0766 24.1299 36.1059C21.5066 36.1059 18.9885 36.1242 16.4704 36.091C15.9541 36.0843 15.7586 36.2472 15.6182 36.7259C14.2063 41.5725 12.7676 46.4126 11.3406 51.2559C11.2788 51.4653 11.242 51.6814 11.1819 51.9374H15.548V46.3428H15.5514ZM15.5179 53.8887H1.86977V59.4966H15.5179V53.8887Z" fill="#0088CA"/>
<path d="M52.9903 28.5833H57.2845V14.3441H59.9647C59.3448 13.5912 58.8118 12.943 58.237 12.2466C58.6982 11.861 59.1543 11.4787 59.664 11.0532C61.0826 12.7452 62.4778 14.409 63.9633 16.1808H59.1643V30.4498H51.1639V16.2306H46.3232C49.3192 12.6538 52.2149 9.19498 55.1608 5.67633C56.2586 6.98606 57.3196 8.25091 58.4074 9.55067C57.9178 9.95622 57.46 10.3368 56.9721 10.7424C56.3655 10.0244 55.7924 9.34457 55.1608 8.59663C53.5768 10.4848 52.0144 12.3513 50.3736 14.3076H52.9903V28.5833Z" fill="#0088CA"/>
<path d="M13.1786 6.15C13.1903 3.03524 15.665 0.601937 18.803 0.62022C21.9393 0.638503 24.3755 3.0984 24.3555 6.22147C24.3354 9.30798 21.8224 11.7562 18.6977 11.733C15.6249 11.7097 13.1669 9.22322 13.1786 6.14834V6.15ZM18.7846 2.48509C16.6859 2.47844 15.0551 4.08735 15.0551 6.16663C15.0551 8.21599 16.6675 9.84484 18.7161 9.86146C20.8081 9.87808 22.4673 8.26585 22.479 6.20485C22.4907 4.12059 20.8733 2.4934 18.7846 2.48509Z" fill="#0088CA"/>
<path d="M54.4005 61.3648V59.5897H56.2068V61.3648H54.4005Z" fill="#0088CA"/>
<path d="M16.965 20.2429H18.7094V22.043H16.965V20.2429Z" fill="#0088CA"/>
<path d="M36.6034 46.3145H34.8055V44.5294H36.6034V46.3145Z" fill="#0088CA"/>
<path d="M38.5547 46.3029V44.5178H40.3443V46.3029H38.5547Z" fill="#0088CA"/>
</g>
<defs>
<clipPath id="clip0_3048_2756">
<rect width="64" height="60.7595" fill="white" transform="translate(0 0.620239)"/>
</clipPath>
</defs>
</svg>
