<svg width="65" height="64" viewBox="0 0 65 64" fill="none" xmlns="http://www.w3.org/2000/svg">
<g clip-path="url(#clip0_3048_2673)">
<g clip-path="url(#clip1_3048_2673)">
<path d="M53.6889 0C53.0079 1.39773 52.3385 2.80047 51.6395 4.18818C51.4619 4.53887 51.4503 4.81774 51.6313 5.17177C52.3254 6.53276 52.9899 7.91045 53.7053 9.36663H40.2247C40.2247 10.6458 40.2149 11.8665 40.2412 13.0856C40.2445 13.2125 40.4435 13.3694 40.5849 13.4546C42.5373 14.6286 42.5521 17.1568 40.6211 18.3575C40.4369 18.4727 40.2362 18.7483 40.2346 18.9487C40.2149 25.4063 40.2181 31.8622 40.2214 38.3198C40.2214 38.42 40.2527 38.5202 40.279 38.6856H45.0505V45.2317H52.4356V51.7895H59.8173V58.349H63.4967V63.9683H58.0393V62.1314H61.6578V60.2944H2.38656V62.1046H56.1034V64H0.5V58.3757H4.17608V51.8413H11.5579V45.2784H18.9643V38.6872H23.7851V28.1266C23.4907 28.1266 23.2095 28.1316 22.9299 28.1266C21.438 28.0965 20.262 27.0679 20.1699 25.5699C20.0893 24.2674 20.1535 22.9565 20.1535 21.6122H21.9742C21.9742 22.6359 21.9742 23.6278 21.9742 24.6214C21.9742 26.126 22.2341 26.3615 23.8164 26.2045V19.7335H25.647V38.6588H27.5056V27.2465H29.3396V38.6471H31.2212V17.9334C33.3018 17.6595 35.3118 17.3956 37.3217 17.1301C37.9516 17.0466 38.5832 16.9748 39.2115 16.8746C39.8596 16.7711 40.228 16.3853 40.2 15.881C40.1688 15.3299 39.7642 15.0076 39.0684 15.006C35.3545 15.0026 31.634 14.8841 27.9283 15.0611C26.3296 15.1379 24.7457 15.7792 23.1832 16.2618C22.4644 16.4839 22.1354 17.1669 22.0515 17.9183C21.9907 18.4727 21.9742 19.0338 21.9348 19.6367H20.1584C20.0762 18.087 20.1452 16.5991 21.2588 15.38C22.3345 14.2027 23.8641 14.0725 25.3428 13.64C24.4644 12.4744 24.0713 11.2286 24.3986 9.82252C24.6026 8.94581 25.0418 8.20603 25.7112 7.6132C27.1158 6.36911 29.1981 6.2305 30.7376 7.27254C32.5337 8.48825 32.9186 10.2333 32.0107 13.1056H38.3727V12.3725C38.3727 8.49826 38.3727 4.62236 38.3743 0.748128C38.3743 0.500978 38.4056 0.252159 38.422 0.00500978C43.511 0.00500978 48.5999 0.00500978 53.6889 0.00500978V0ZM57.9785 53.7483H6.07909V58.3306H57.9801V53.7483H57.9785ZM13.4576 51.7745H50.5605V47.1571H13.4576V51.7745ZM38.3349 18.8852C36.7625 19.094 35.2641 19.3227 33.7591 19.4747C33.2212 19.5298 33.0387 19.6718 33.0403 20.2495C33.0617 26.1628 33.0535 32.076 33.0551 37.9892C33.0551 38.208 33.0765 38.4284 33.088 38.6522H38.3349V18.8835V18.8852ZM43.2034 40.6227H20.8525V45.205H43.2034V40.6227ZM50.7069 7.47627C50.3089 6.66468 49.9536 5.89986 49.5605 5.15674C49.3878 4.8311 49.3746 4.56558 49.5506 4.23327C49.947 3.49015 50.3023 2.72365 50.7036 1.9104H40.2658V7.47627H50.7069ZM28.458 8.44817C27.1816 8.43982 26.1388 9.47517 26.129 10.7644C26.1191 12.0385 27.1668 13.1139 28.4251 13.1223C29.6866 13.1306 30.7426 12.0786 30.7557 10.7978C30.7689 9.51692 29.7327 8.45652 28.458 8.44817Z" fill="#0088CA"/>
<path d="M29.2954 21.5371H27.5635V19.7436H29.2954V21.5371Z" fill="#0088CA"/>
<path d="M29.3325 23.4792V25.261H27.5693V23.4792H29.3325Z" fill="#0088CA"/>
</g>
</g>
<defs>
<clipPath id="clip0_3048_2673">
<rect x="0.5" width="64" height="64" rx="4" fill="white"/>
</clipPath>
<clipPath id="clip1_3048_2673">
<rect width="63" height="64" fill="white" transform="translate(0.5)"/>
</clipPath>
</defs>
</svg>
