<svg width="34" height="36" viewBox="0 0 34 36" fill="none" xmlns="http://www.w3.org/2000/svg">
<g clip-path="url(#clip0_3092_833)">
<path d="M25.3916 36.0002C24.5874 34.6309 23.7853 33.2616 22.9792 31.8932C22.2375 30.6349 21.4919 29.3775 20.7483 28.1202C20.8469 28.0813 20.9435 28.0348 21.0459 28.0063C23.3637 27.3582 25.4023 26.2308 27.1238 24.5901C27.764 23.98 28.3251 23.291 28.9223 22.6372C30.6009 25.4584 32.2794 28.2787 34.0009 31.172C33.1558 31.1331 32.3926 31.1018 31.6304 31.0619C30.5482 31.0059 29.4659 30.9376 28.3837 30.893C28.2607 30.8883 28.0665 30.9642 28.0167 31.0581C27.1579 32.6666 26.3167 34.2836 25.4735 35.9006C25.4589 35.9281 25.4677 35.967 25.4657 36.0012H25.3935L25.3916 36.0002Z" fill="url(#paint0_linear_3092_833)"/>
<path d="M13.2477 28.1303C11.737 30.682 10.2254 33.2337 8.71567 35.7854C8.67566 35.8537 8.64736 35.9287 8.6132 36.0008H8.54099C8.5 35.8945 8.46975 35.7835 8.41705 35.6829C7.64415 34.2016 6.85758 32.7279 6.10224 31.238C5.94707 30.9325 5.77727 30.8708 5.44059 30.8917C3.66251 31.0055 1.88249 31.0862 0 31.183C1.70781 28.3068 3.37463 25.4988 5.04145 22.6909C5.12147 22.7754 5.2093 22.8541 5.28152 22.9443C6.71705 24.7473 8.46682 26.184 10.5991 27.1424C11.455 27.5277 12.3635 27.8038 13.2477 28.1293V28.1303Z" fill="url(#paint1_linear_3092_833)"/>
<path d="M13.2477 28.1305C12.3635 27.805 11.4559 27.5279 10.5991 27.1436C8.46679 26.1852 6.71702 24.7485 5.28149 22.9455C5.20927 22.8554 5.12144 22.7766 5.04142 22.6921C4.36025 21.6834 3.72592 20.65 3.28091 19.517C2.74612 18.1543 2.41042 16.7508 2.31185 15.2913C2.06105 11.5487 3.13941 8.20275 5.55669 5.29899C7.87247 2.51669 10.8763 0.796258 14.5193 0.213608C18.6561 -0.448753 22.4435 0.430916 25.7966 2.87918C28.9068 5.14905 30.8117 8.18282 31.4568 11.915C32.1145 15.7212 31.2811 19.2323 29.0551 22.4302C29.0083 22.4976 28.9663 22.5688 28.9214 22.638C28.3242 23.2909 27.7631 23.9799 27.1229 24.591C25.4014 26.2317 23.3628 27.359 21.045 28.0072C20.9435 28.0356 20.8469 28.0831 20.7474 28.121C19.5275 28.2805 18.3116 28.5158 17.0868 28.5775C15.7947 28.642 14.5075 28.4408 13.2477 28.1296V28.1305ZM16.9648 3.9382C11.0558 3.95813 6.37155 8.51305 6.31495 14.1545C6.25542 20.0968 11.047 24.6451 16.957 24.6564C22.9275 24.6669 27.5298 20.0949 27.6235 14.461C27.7211 8.5586 22.8299 3.92871 16.9658 3.93915L16.9648 3.9382Z" fill="#FED05C"/>
<path d="M16.9649 3.93796C22.829 3.92752 27.7211 8.55836 27.6226 14.4598C27.5289 20.0937 22.9276 24.6657 16.9561 24.6553C11.0461 24.6448 6.2545 20.0965 6.31403 14.1533C6.37063 8.51186 11.0549 3.95694 16.9639 3.93701L16.9649 3.93796ZM12.1557 20.5795C12.1362 21.1167 12.5539 21.3681 13.034 21.1271C14.1777 20.553 15.3244 19.9817 16.4525 19.3791C16.837 19.1742 17.1493 19.1799 17.528 19.382C18.6356 19.9732 19.7618 20.5302 20.8772 21.1081C21.1192 21.2334 21.3486 21.2884 21.5838 21.1129C21.7994 20.9515 21.8336 20.7409 21.7877 20.4866C21.5584 19.2207 21.3496 17.9519 21.1144 16.687C21.0558 16.3729 21.1485 16.1537 21.3759 15.9383C22.3264 15.0406 23.274 14.14 24.2001 13.2186C24.3338 13.0848 24.406 12.8276 24.3924 12.635C24.3729 12.3741 24.1299 12.2716 23.8693 12.2355C22.5723 12.0533 21.2783 11.8531 19.9794 11.6889C19.6095 11.6424 19.3978 11.483 19.2416 11.1689C18.6883 10.052 18.1164 8.94268 17.5573 7.82862C17.4294 7.57431 17.2899 7.3589 16.9502 7.36554C16.6282 7.37218 16.4984 7.58095 16.3774 7.82293C15.8143 8.94837 15.2434 10.07 14.6803 11.1964C14.5515 11.4545 14.3817 11.6329 14.0675 11.6756C12.7822 11.8521 11.4999 12.0467 10.2137 12.2213C9.91116 12.2621 9.64279 12.3114 9.52861 12.6341C9.41443 12.9558 9.63108 13.1361 9.83016 13.3258C10.7436 14.1922 11.6687 15.0491 12.5626 15.9354C12.7256 16.0967 12.8476 16.3824 12.8398 16.6054C12.8242 17.0334 12.7002 17.4566 12.6251 17.8827C12.4651 18.7927 12.307 19.7027 12.1537 20.5795H12.1557Z" fill="#F7B54C"/>
<path d="M12.1556 20.5799C12.3088 19.7031 12.4669 18.7921 12.6269 17.883C12.7021 17.4569 12.826 17.0327 12.8416 16.6057C12.8494 16.3827 12.7274 16.098 12.5645 15.9358C11.6706 15.0495 10.7464 14.1935 9.83198 13.3262C9.63289 13.1373 9.41625 12.9561 9.53043 12.6344C9.6446 12.3118 9.91297 12.2624 10.2155 12.2216C11.5007 12.0479 12.784 11.8525 14.0693 11.676C14.3835 11.6333 14.5533 11.4549 14.6821 11.1967C15.2452 10.0713 15.8161 8.94966 16.3792 7.82326C16.5002 7.58128 16.63 7.37252 16.9521 7.36587C17.2917 7.35923 17.4312 7.57369 17.5591 7.82896C18.1183 8.94396 18.6901 10.0523 19.2435 11.1692C19.3996 11.4833 19.6114 11.6428 19.9812 11.6893C21.2801 11.8534 22.5742 12.0536 23.8711 12.2358C24.1307 12.2729 24.3747 12.3744 24.3942 12.6353C24.4088 12.828 24.3366 13.0861 24.202 13.2189C23.2758 14.1404 22.3282 15.0409 21.3777 15.9386C21.1503 16.1531 21.0576 16.3732 21.1162 16.6873C21.3504 17.9523 21.5602 19.221 21.7896 20.4869C21.8354 20.7412 21.8013 20.9519 21.5856 21.1132C21.3504 21.2887 21.1211 21.2337 20.879 21.1084C19.7636 20.5305 18.6374 19.9735 17.5298 19.3823C17.1511 19.1802 16.8389 19.1736 16.4544 19.3795C15.3262 19.9821 14.1796 20.5524 13.0358 21.1274C12.5557 21.3685 12.138 21.117 12.1575 20.5799H12.1556Z" fill="#F3F4F6"/>
</g>
<defs>
<linearGradient id="paint0_linear_3092_833" x1="26.6343" y1="36.1404" x2="26.6343" y2="22.7764" gradientUnits="userSpaceOnUse">
<stop stop-color="#0088CA"/>
<stop offset="1" stop-color="#1FB3E5"/>
</linearGradient>
<linearGradient id="paint1_linear_3092_833" x1="5.88386" y1="36.1394" x2="5.88386" y2="22.8296" gradientUnits="userSpaceOnUse">
<stop stop-color="#0088CA"/>
<stop offset="1" stop-color="#1FB3E5"/>
</linearGradient>
<clipPath id="clip0_3092_833">
<rect width="34" height="36" fill="white"/>
</clipPath>
</defs>
</svg>
