<svg width="70" height="52" viewBox="0 0 70 52" fill="none" xmlns="http://www.w3.org/2000/svg">
<g clip-path="url(#clip0_3539_1795)">
<path d="M29.6038 46.3424C29.7839 45.5936 29.964 44.8725 30.158 44.1099H20.3361C20.3361 45.2608 20.3499 46.3979 20.3361 47.5488C20.2945 49.5179 19.0339 51.2096 17.1776 51.7781C16.6927 51.9307 16.1663 51.9861 15.6537 52C12.0103 52.0139 8.36695 52.0139 4.72356 52C1.95293 52 0.0411969 50.0587 0.0273438 47.2715C0.0273438 41.3781 0.0273438 35.4987 0.0273438 29.6053C0.0273438 26.7904 1.95293 24.8768 4.77898 24.8629C5.41622 24.8629 6.05347 24.8629 6.80154 24.8629V24.0309C6.80154 17.6523 6.80154 11.2736 6.80154 4.88107C6.77383 1.872 8.64401 0 11.664 0C27.2072 0 42.7643 0 58.3076 0C61.3691 0 63.2255 1.85813 63.2393 4.92267C63.2393 7.76533 63.2393 10.6219 63.2393 13.5616C63.9458 13.5616 64.6108 13.5616 65.2896 13.5616C68.0741 13.5616 70.0135 15.4891 70.0135 18.2624C70.0135 27.9413 70.0135 37.6203 70.0135 47.2992C70.0135 50.0725 68.0741 52 65.2896 52C52.3092 52 39.3288 52 26.3345 52C25.2262 52 24.8522 51.6256 24.8522 50.5163C24.8522 49.5456 24.8522 48.5888 24.8522 47.6181C24.8522 46.7861 25.2817 46.3563 26.1128 46.3424C27.2627 46.3285 28.4125 46.3424 29.6038 46.3424ZM9.0319 24.8629C9.36437 24.8629 9.62758 24.8629 9.87694 24.8629C11.8579 24.8629 13.8251 24.8491 15.8061 24.8629C18.0364 24.8907 19.8374 26.3744 20.2252 28.5792C20.3638 29.3557 20.3222 30.1739 20.3222 30.9781C20.3222 32.6837 20.3222 34.4032 20.3222 36.1227H40.6448V35.3045C40.6448 29.6747 40.6448 24.0448 40.6448 18.4149C40.6448 15.4475 42.5288 13.5616 45.4934 13.5616C50.3836 13.5616 55.2737 13.5616 60.1639 13.5616C60.4133 13.5616 60.6626 13.5616 60.9674 13.5616V12.8544C60.9674 10.192 60.9674 7.5296 60.9674 4.8672C60.9674 3.13387 60.0946 2.26027 58.363 2.26027C42.792 2.26027 27.2211 2.26027 11.6501 2.26027C9.89079 2.26027 9.0319 3.13387 9.0319 4.92267C9.0319 10.6635 9.0319 16.4181 9.0319 22.1589C9.0319 23.0325 9.0319 23.8923 9.0319 24.8629ZM18.0642 38.4384C18.0642 35.5264 18.0642 32.6005 18.0642 29.6885C18.0642 28.0245 17.1637 27.1371 15.4875 27.1371C15.252 27.1371 15.0026 27.0816 14.781 27.1509C14.5732 27.2203 14.3238 27.3589 14.2545 27.5392C14.0052 28.1493 13.8251 28.7733 13.6034 29.3973C13.2848 30.3264 13.0355 30.5205 12.0796 30.5205C11.2068 30.5205 10.3341 30.5205 9.4752 30.5205C6.92622 30.5205 7.14787 30.7285 6.35824 28.288C6.09964 27.5115 5.55937 27.1278 4.73742 27.1371C3.21357 27.1371 2.27156 28.0661 2.27156 29.6053C2.27156 35.4848 2.27156 41.3643 2.27156 47.2437C2.27156 48.8245 3.18586 49.7397 4.76512 49.7397C8.36694 49.7397 11.9549 49.7397 15.5567 49.7397C17.1776 49.7397 18.078 48.8384 18.078 47.1883C18.078 44.2763 18.078 41.3504 18.078 38.4384H18.0642ZM67.7416 32.8501C67.7416 28.0245 67.7416 23.1989 67.7416 18.3733C67.7416 16.7371 66.8411 15.8219 65.2203 15.8219C58.6401 15.8219 52.046 15.8219 45.4657 15.8219C43.8033 15.8219 42.9029 16.7232 42.9029 18.4011C42.9029 27.9829 42.9029 37.5648 42.9029 47.1467C42.9029 48.8245 43.7895 49.7259 45.4657 49.7259C52.0321 49.7259 58.5846 49.7259 65.151 49.7259C66.8688 49.7259 67.7416 48.8523 67.7416 47.1051C67.7416 42.3488 67.7416 37.5925 67.7416 32.8363V32.8501ZM20.3638 41.7664H40.5894V38.4523H20.3638V41.7664ZM41.1435 49.712C41.0604 48.7691 40.5755 48.5611 39.7305 48.5749C35.7823 48.6304 31.848 48.6027 27.8999 48.6027H27.1518V49.712H41.1435ZM38.0543 46.3147C37.8603 45.552 37.6802 44.8309 37.5001 44.1099H32.4853C32.3052 44.8448 32.1251 45.5659 31.945 46.3147H38.0543ZM11.9134 27.1787H8.4085C8.56551 27.8997 8.9811 28.2603 9.65529 28.2603C9.98776 28.2603 10.3064 28.2603 10.6389 28.2603C11.3223 28.2603 11.7471 27.8997 11.9134 27.1787ZM40.4093 46.3285C40.4093 46.3285 40.534 46.3008 40.6032 46.3008V44.0821C40.34 44.096 40.1184 44.1099 39.8413 44.1237C40.0353 44.9003 40.2292 45.6213 40.4093 46.3285Z" fill="#0088CA"/>
<path d="M6.17834 48.6026C5.63806 48.6026 5.09779 48.6165 4.55752 48.6026C3.85101 48.5749 3.38 48.0896 3.39385 47.4517C3.40771 46.8416 3.86486 46.3701 4.54366 46.3562C5.65192 46.3285 6.76017 46.3285 7.85457 46.3562C8.56108 46.3701 9.03209 46.8693 9.01823 47.5072C9.00438 48.1173 8.54723 48.5749 7.86842 48.6026C7.30044 48.6304 6.74632 48.6026 6.17834 48.6026Z" fill="#0088CA"/>
<path d="M11.886 46.3424C12.0246 46.3424 12.1631 46.3424 12.3155 46.3424C13.0774 46.3701 13.5623 46.8416 13.5484 47.5072C13.5346 48.1451 13.0497 48.5749 12.3155 48.6027C12.0107 48.6027 11.706 48.6027 11.4012 48.6027C10.6393 48.5749 10.1544 48.1035 10.1683 47.4379C10.1821 46.8 10.667 46.3701 11.4012 46.3424C11.5674 46.3424 11.7337 46.3424 11.8999 46.3424H11.886Z" fill="#0088CA"/>
<path d="M44.0391 31.0891C44.0391 26.9013 44.0391 22.6997 44.0391 18.512C44.0391 17.3056 44.3854 16.9589 45.5906 16.9589C52.0877 16.9589 58.571 16.9589 65.0682 16.9589C66.2734 16.9589 66.6197 17.3056 66.6197 18.512C66.6197 26.9013 66.6197 35.2768 66.6197 43.6661C66.6197 44.8725 66.2595 45.2192 65.0682 45.2192C58.571 45.2192 52.0877 45.2192 45.5906 45.2192C44.3854 45.2192 44.0391 44.8725 44.0391 43.6661C44.0391 39.4784 44.0391 35.2768 44.0391 31.0891ZM46.3387 19.2469V42.8896H64.3201V19.2469H46.3387Z" fill="#0088CA"/>
<path d="M55.3157 47.4933C55.3157 48.1035 54.7754 48.6165 54.1659 48.6027C53.5563 48.6027 53.0576 48.0757 53.0576 47.4517C53.0576 46.8416 53.584 46.3424 54.2074 46.3424C54.817 46.3424 55.3157 46.8693 55.3157 47.4933Z" fill="#0088CA"/>
</g>
<defs>
<clipPath id="clip0_3539_1795">
<rect width="70" height="52" fill="white"/>
</clipPath>
</defs>
</svg>
